<?xml version="1.0" encoding="UTF-8" standalone="no"?>
<svg
   width="200mm"
   height="200mm"
   version="1.1"
   viewBox="0 0 200 200"
   id="svg12"
   sodipodi:docname="bild30.svg"
   inkscape:version="1.1.2 (b8e25be833, 2022-02-05)"
   xmlns:inkscape="http://www.inkscape.org/namespaces/inkscape"
   xmlns:sodipodi="http://sodipodi.sourceforge.net/DTD/sodipodi-0.dtd"
   xmlns="http://www.w3.org/2000/svg"
   xmlns:svg="http://www.w3.org/2000/svg">
  <defs
     id="defs16" />
  <sodipodi:namedview
     id="namedview14"
     pagecolor="#ffffff"
     bordercolor="#666666"
     borderopacity="1.0"
     inkscape:pageshadow="2"
     inkscape:pageopacity="0.0"
     inkscape:pagecheckerboard="0"
     inkscape:document-units="mm"
     showgrid="false"
     inkscape:zoom="0.33800521"
     inkscape:cx="621.2922"
     inkscape:cy="341.71071"
     inkscape:window-width="843"
     inkscape:window-height="688"
     inkscape:window-x="627"
     inkscape:window-y="0"
     inkscape:window-maximized="0"
     inkscape:current-layer="svg12" />
  <path
     d="m 10.566524,62.31775 c 0,0 7.7542,-16.688996 14.17,-14.537996 7.4771,2.5076 -4.4917,20.890996 2.9599,23.472996 7.863,2.7247 9.8878,-20.165996 17.78,-17.525996 7.5664,2.5313 -4.2075,21.629996 3.5038,23.677996 7.4618,1.9816 6.8218,-20.084996 14.311,-18.210996 6.9944,1.7504 -3.2756,19.809996 3.7793,21.296996 6.6214,1.3962 4.5906,-17.602 11.316004,-16.854 2.9607,0.32895 3.2314,8.332 3.2314,8.332"
     fill="none"
     stroke="#ffff00"
     stroke-width="3.965"
     id="path18" />
  <ellipse
     transform="rotate(-37.977)"
     cx="15.016503"
     cy="117.62981"
     rx="12.034114"
     ry="12.225138"
     fill="#b3b3b3"
     stroke-opacity="0"
     id="ellipse2"
     style="fill:#ffaaaa;stroke-width:0.464781" />
  <ellipse
     transform="rotate(-37.977)"
     cx="42.904762"
     cy="127.18107"
     rx="17.000299"
     ry="12.989239"
     fill="#b3b3b3"
     stroke-opacity="0"
     id="ellipse6"
     style="fill:#ffaaaa;stroke-width:0.464781" />
  <ellipse
     transform="rotate(-37.977)"
     cx="39.275288"
     cy="136.73232"
     rx="9.1687374"
     ry="5.3482366"
     fill="#b3b3b3"
     stroke-opacity="0"
     id="ellipse8"
     style="fill:#ffaaaa;stroke-width:0.464781" />
  <ellipse
     transform="rotate(-37.977)"
     cx="9.6678019"
     cy="128.90076"
     rx="7.0674624"
     ry="5.9213119"
     fill="#b3b3b3"
     stroke-opacity="0"
     id="ellipse10"
     style="fill:#ffaaaa;stroke-width:0.464781" />
  <ellipse
     transform="rotate(-37.977)"
     cx="26.859404"
     cy="136.34654"
     rx="15.4721"
     ry="13.753339"
     fill="#b3b3b3"
     stroke-opacity="0"
     id="ellipse12"
     style="fill:#ffaaaa;stroke-width:0.464781" />
  <ellipse
     transform="rotate(-37.977)"
     cx="40.421436"
     cy="116.48273"
     rx="19.865675"
     ry="21.011826"
     fill="#b3b3b3"
     stroke-opacity="0"
     id="ellipse14"
     style="fill:#ffaaaa;stroke-width:0.464781" />
  <ellipse
     transform="rotate(-37.977)"
     cx="57.230713"
     cy="128.51498"
     rx="16.045174"
     ry="10.887963"
     fill="#b3b3b3"
     stroke-opacity="0"
     id="ellipse16"
     style="fill:#ffaaaa;stroke-width:0.464781" />
  <ellipse
     transform="rotate(-37.977)"
     cx="47.488899"
     cy="147.04581"
     rx="21.20285"
     ry="17.191324"
     fill="#b3b3b3"
     stroke-opacity="0"
     id="ellipse18"
     style="fill:#ffaaaa;stroke-width:0.464781" />
  <path
     style="opacity:0.282051;fill:#ffff00;fill-opacity:1;stroke:none;stroke-width:0.489714px;stroke-linecap:butt;stroke-linejoin:miter;stroke-opacity:1"
     d="M 249.6577,274.13347 333.95913,82.183419 80.030427,70.910416 249.6577,274.13347 v 0 0"
     id="path279"
     sodipodi:nodetypes="cccccc" />
</svg>
