<?xml version="1.0" encoding="UTF-8"?>
<svg width="200mm" height="200mm" version="1.1" viewBox="0 0 200 200" xmlns="http://www.w3.org/2000/svg">
<g stroke-opacity="0">
<rect x="61.586" y="22.295" width="77.728" height="68.414" fill="#ff0"/>
<ellipse cx="101.53" cy="56.614" rx="26.155" ry="25.573"/>
<ellipse cx="100.95" cy="56.449" rx="8.7182" ry="8.5729" fill="#ff0"/>
<rect x="55.978" y="90.252" width="14.513" height="12.64" fill="#e6e6e6"/>
<rect x="129.43" y="90.491" width="14.512" height="12.93" fill="#e6e6e6"/>
<path d="m55.978 102.89s3.0986 35.972 10.94 48.972 18.347 23.636 32.484 23.455c14.137-0.18116 22.278-7.4977 30.508-19.799s14.037-52.099 14.037-52.099h-14.512c-1.7138 81.66-60.879 81.423-58.944-0.52851z" fill="#d40000"/>
<path d="m121.24 89.505 17.727-33.71-38.651 0.29061z" fill="#ff0"/>
<path d="m100.32 56.085 17.727-33.71-38.651 0.29061z" fill="#ff0"/>
<path d="m82.59 89.795 17.727-33.71-38.651 0.29061z" fill="#ff0"/>
<ellipse cx="100.86" cy="56.49" rx="6.7087" ry="6.9993"/>
</g>
</svg>
