<?xml version="1.0" encoding="UTF-8"?>
<svg width="200mm" height="200mm" version="1.1" viewBox="0 0 200 200" xmlns="http://www.w3.org/2000/svg">
<text transform="scale(.26458)" fill="#000000" font-family="sans-serif" font-size="26.667px" style="line-height:1.25;shape-inside:url(#rect23417);white-space:pre" xml:space="preserve"/>
<text transform="scale(.26458)" fill="#000000" font-family="sans-serif" font-size="29.333px" style="line-height:1.15;shape-inside:url(#rect28713);white-space:pre" xml:space="preserve"/>
<path transform="matrix(.23137 .12835 -.12835 .23137 63.922 -22.069)" d="m372.79 354.15-35.351 20.843-35.726-20.193-0.37539-41.036 35.351-20.843 35.726 20.193z" fill-opacity="0" stroke="#74e0ff" stroke-linecap="round" stroke-linejoin="round" stroke-width="38.041"/>
<path transform="matrix(.23651 .1186 -.1186 .23651 12.347 40.272)" d="m489.29 113.39-102.74 53.682-97.859-62.132 4.879-115.81 102.74-53.682 97.859 62.132z" fill-opacity="0" stroke="#74e0ff" stroke-linecap="round" stroke-linejoin="round" stroke-width="16.498"/>
<path d="m104.23 88.918 35.052-62.136" fill="#0ff" stroke="#74e0ff" stroke-linecap="round" stroke-linejoin="round" stroke-width="9.365"/>
<path d="m58.815 170.14 35.052-62.136" fill="#0ff" stroke="#74e0ff" stroke-linecap="round" stroke-linejoin="round" stroke-width="9.365"/>
<path d="m138.51 170.55-33.788-62.832" fill="#0ff" stroke="#74e0ff" stroke-linecap="round" stroke-linejoin="round" stroke-width="9.365"/>
<path d="m93.372 89.203-33.788-62.832" fill="#0ff" stroke="#74e0ff" stroke-linecap="round" stroke-linejoin="round" stroke-width="9.365"/>
<path d="m181.22 96.39-71.318 1.7853" fill="#0ff" stroke="#74e0ff" stroke-linecap="round" stroke-linejoin="round" stroke-width="9.365"/>
<path d="m88.192 98.746-71.318 1.7853" fill="#0ff" stroke="#74e0ff" stroke-linecap="round" stroke-linejoin="round" stroke-width="9.365"/>
<path d="m83.071 72.519 6.8414-23.967-6.8414 23.967-22.088-11.199z" fill="none" stroke="#61e1ff" stroke-linecap="round" stroke-linejoin="round" stroke-width="6.765"/>
<path d="m83.071 72.519 10.316 17.318 10.839-0.91852 5.6742 9.2573-5.6882 9.2608 10.41 17.685-3.5717 19.477 3.5717-19.477 17.403 7.5795-17.403-7.5795v0l29.529 32.669-29.529-32.669 7.7768 37.992-7.7768-37.992-30.665 0.51161 2.6321 21.959-2.6321-21.959-19.169 8.2608 19.169-8.2608-28.026 30.217 28.026-30.217-10.896 38.31 10.896-38.31-15.776-26.301-15.152 12.611 15.152-12.611-15.446-10.582 15.446 10.582-41.033-10.206 41.033 10.206-37.266 13.503 37.266-13.503 14.89-26.813-27.092-29.437 27.092 29.437-3.6662-39.471z" fill="none" stroke="#61e1ff" stroke-linecap="round" stroke-linejoin="round" stroke-width="5.565"/>
<path d="m113.74 72.007-5.8045-20.476z" fill="none" stroke="#61e1ff" stroke-linecap="round" stroke-linejoin="round" stroke-width="6.765"/>
<path d="m113.74 72.007 21.442-6.2214z" fill="none" stroke="#61e1ff" stroke-linecap="round" stroke-linejoin="round" stroke-width="6.765"/>
<path d="m113.74 72.007 10.494-41.822-10.494 41.822 29.463-29.42z" fill="none" stroke="#61e1ff" stroke-linecap="round" stroke-linejoin="round" stroke-width="5.565"/>
<path d="m129.51 98.308 16.149-14.408z" fill="none" stroke="#61e1ff" stroke-linecap="round" stroke-linejoin="round" stroke-width="6.765"/>
<path d="m129.51 98.308 16.086 12.817z" fill="none" stroke="#61e1ff" stroke-linecap="round" stroke-linejoin="round" stroke-width="6.765"/>
<path d="m129.51 98.308 40.458-15.022z" fill="none" stroke="#61e1ff" stroke-linecap="round" stroke-linejoin="round" stroke-width="6.765"/>
<path d="m129.51 98.308 41.553 10.964z" fill="none" stroke="#61e1ff" stroke-linecap="round" stroke-linejoin="round" stroke-width="5.565"/>
</svg>
