<?xml version="1.0" encoding="UTF-8"?>
<svg width="200mm" height="200mm" version="1.1" viewBox="0 0 200 200" xmlns="http://www.w3.org/2000/svg">
<g stroke-opacity="0">
<rect x="64.492" y="112.64" width="77.728" height="68.414" fill="#ff0"/>
<ellipse cx="104.44" cy="146.96" rx="26.155" ry="25.573"/>
<ellipse cx="103.86" cy="146.8" rx="8.7182" ry="8.5729" fill="#ff0"/>
<path d="m124.15 179.85 17.727-33.71-38.651 0.29061z" fill="#ff0"/>
<path d="m103.22 146.43 17.727-33.71-38.651 0.2906z" fill="#ff0"/>
<path d="m85.496 180.14 17.727-33.71-38.651 0.2906z" fill="#ff0"/>
<ellipse cx="103.76" cy="146.84" rx="6.7087" ry="6.9993"/>
<ellipse transform="rotate(-3.1033)" cx="71.794" cy="37.792" rx="1.5384" ry="1.2373" fill="#0f0"/>
<ellipse transform="rotate(-3.1033)" cx="80.535" cy="39.277" rx="1.5384" ry="1.2373" fill="#0f0"/>
<ellipse transform="rotate(-3.1033)" cx="98.334" cy="105.47" rx="1.5384" ry="1.2373" fill="#0f0"/>
<ellipse transform="rotate(-3.1033)" cx="79.137" cy="44.473" rx="1.5384" ry="1.2373" fill="#0f0"/>
<ellipse transform="rotate(-3.1033)" cx="87.426" cy="107.82" rx="1.5384" ry="1.2373" fill="#0f0"/>
<ellipse transform="rotate(-3.1033)" cx="124.8" cy="86.728" rx="1.5384" ry="1.2373" fill="#0f0"/>
<ellipse transform="rotate(-3.1033)" cx="133.54" cy="88.213" rx="1.5384" ry="1.2373" fill="#0f0"/>
<ellipse transform="rotate(-3.1033)" cx="79.556" cy="35.75" rx="1.5384" ry="1.2373" fill="#0f0"/>
<ellipse transform="rotate(-3.1033)" cx="65.431" cy="36.74" rx="1.5384" ry="1.2373" fill="#0f0"/>
<ellipse transform="rotate(-3.1033)" cx="91.699" cy="50.447" rx="1.5384" ry="1.2373" fill="#0f0"/>
<ellipse transform="rotate(-3.1033)" cx="68.647" cy="38.101" rx="1.5384" ry="1.2373" fill="#0f0"/>
<ellipse transform="rotate(-3.1033)" cx="86.726" cy="98.351" rx="1.5384" ry="1.2373" fill="#0f0"/>
<ellipse transform="rotate(-3.1033)" cx="97.676" cy="96.754" rx="1.5384" ry="1.2373" fill="#008000"/>
<ellipse transform="rotate(-3.1033)" cx="106.42" cy="98.238" rx="1.5384" ry="1.2373" fill="#008000"/>
<ellipse transform="rotate(-3.1033)" cx="105.02" cy="103.44" rx="1.5384" ry="1.2373" fill="#008000"/>
<ellipse transform="rotate(-3.1033)" cx="129.49" cy="87.597" rx="1.5384" ry="1.2373" fill="#008000"/>
<ellipse transform="rotate(-3.1033)" cx="89.042" cy="106.4" rx="1.5384" ry="1.2373" fill="#008000"/>
<ellipse transform="rotate(-3.1033)" cx="95.508" cy="100.59" rx="1.5384" ry="1.2373" fill="#008000"/>
<ellipse transform="rotate(-3.1033)" cx="107.77" cy="89.222" rx="1.5384" ry="1.2373" fill="#008000"/>
<ellipse transform="rotate(-3.1033)" cx="108.82" cy="92.253" rx="1.5384" ry="1.2373" fill="#008000"/>
<ellipse transform="rotate(-3.1033)" cx="105.44" cy="94.712" rx="1.5384" ry="1.2373" fill="#008000"/>
<ellipse transform="rotate(-3.1033)" cx="70.264" cy="36.681" rx="1.5384" ry="1.2373" fill="#008000"/>
<ellipse transform="rotate(-3.1033)" cx="94.529" cy="97.063" rx="1.5384" ry="1.2373" fill="#008000"/>
<ellipse transform="rotate(-3.1033)" cx="119" cy="81.225" rx="1.5384" ry="1.2373" fill="#008000"/>
<ellipse transform="rotate(-3.1033)" cx="92.423" cy="102.16" rx="1.5384" ry="1.2373" fill="#0f0"/>
<ellipse transform="rotate(-3.1033)" cx="101.16" cy="103.65" rx="1.5384" ry="1.2373" fill="#0f0"/>
<ellipse transform="rotate(-3.1033)" cx="95.173" cy="87.949" rx="1.5384" ry="1.2373" fill="#0f0"/>
<ellipse transform="rotate(-3.1033)" cx="108.58" cy="45.121" rx="1.5384" ry="1.2373" fill="#0f0"/>
<ellipse transform="rotate(-3.1033)" cx="103.91" cy="89.433" rx="1.5384" ry="1.2373" fill="#0f0"/>
<ellipse transform="rotate(-3.1033)" cx="107.18" cy="50.318" rx="1.5384" ry="1.2373" fill="#0f0"/>
<ellipse transform="rotate(-3.1033)" cx="92.843" cy="93.439" rx="1.5384" ry="1.2373" fill="#0f0"/>
<ellipse transform="rotate(-3.1033)" cx="101.58" cy="94.924" rx="1.5384" ry="1.2373" fill="#0f0"/>
<ellipse transform="rotate(-3.1033)" cx="100.19" cy="100.12" rx="1.5384" ry="1.2373" fill="#0f0"/>
<ellipse transform="rotate(-3.1033)" cx="86.06" cy="101.11" rx="1.5384" ry="1.2373" fill="#0f0"/>
<ellipse transform="rotate(-3.1033)" cx="81.934" cy="95.79" rx="1.5384" ry="1.2373" fill="#0f0"/>
<ellipse transform="rotate(-3.1033)" cx="109" cy="36.398" rx="1.5384" ry="1.2373" fill="#0f0"/>
<ellipse transform="rotate(-3.1033)" cx="90.675" cy="97.275" rx="1.5384" ry="1.2373" fill="#0f0"/>
<ellipse transform="rotate(-3.1033)" cx="107.6" cy="41.595" rx="1.5384" ry="1.2373" fill="#0f0"/>
<ellipse transform="rotate(-3.1033)" cx="89.276" cy="102.47" rx="1.5384" ry="1.2373" fill="#0f0"/>
<ellipse transform="rotate(-3.1033)" cx="97.536" cy="94.308" rx="1.5384" ry="1.2373" fill="#008000"/>
<ellipse transform="rotate(-3.1033)" cx="108.79" cy="48.898" rx="1.5384" ry="1.2373" fill="#008000"/>
<ellipse transform="rotate(-3.1033)" cx="86.627" cy="96.659" rx="1.5384" ry="1.2373" fill="#008000"/>
<ellipse transform="rotate(-3.1033)" cx="108.68" cy="89.808" rx="1.5384" ry="1.2373" fill="#008000"/>
<ellipse transform="rotate(-3.1033)" cx="109.21" cy="40.175" rx="1.5384" ry="1.2373" fill="#008000"/>
<ellipse transform="rotate(-3.1033)" cx="90.893" cy="101.05" rx="1.5384" ry="1.2373" fill="#008000"/>
<ellipse transform="rotate(-3.1033)" cx="102.43" cy="47.847" rx="1.5384" ry="1.2373" fill="#008000"/>
<ellipse transform="matrix(.33216 -.94322 .96654 .2565 0 0)" cx="-28.396" cy="134.67" rx="1.3833" ry="1.3805" fill="#0f0"/>
<ellipse transform="matrix(.33216 -.94322 .96654 .2565 0 0)" cx="-54.793" cy="111.92" rx="1.3833" ry="1.3805" fill="#0f0"/>
<ellipse transform="matrix(.33216 -.94322 .96654 .2565 0 0)" cx="-56.051" cy="117.72" rx="1.3833" ry="1.3805" fill="#0f0"/>
<ellipse transform="matrix(.33216 -.94322 .96654 .2565 0 0)" cx="-27.705" cy="115.76" rx="1.3833" ry="1.3805" fill="#0f0"/>
<ellipse transform="matrix(.33216 -.94322 .96654 .2565 0 0)" cx="-64.602" cy="114.54" rx="1.3833" ry="1.3805" fill="#0f0"/>
<ellipse transform="matrix(.33216 -.94322 .96654 .2565 0 0)" cx="-28.962" cy="121.55" rx="1.3833" ry="1.3805" fill="#0f0"/>
<ellipse transform="matrix(.33216 -.94322 .96654 .2565 0 0)" cx="-65.859" cy="120.34" rx="1.3833" ry="1.3805" fill="#0f0"/>
<ellipse transform="matrix(.33216 -.94322 .96654 .2565 0 0)" cx="-34.617" cy="92.039" rx="1.3833" ry="1.3805" fill="#0f0"/>
<ellipse transform="matrix(.33216 -.94322 .96654 .2565 0 0)" cx="-28.019" cy="124.94" rx="1.3833" ry="1.3805" fill="#0f0"/>
<ellipse transform="matrix(.33216 -.94322 .96654 .2565 0 0)" cx="-18.332" cy="71.125" rx="1.3833" ry="1.3805" fill="#0f0"/>
<ellipse transform="matrix(.33216 -.94322 .96654 .2565 0 0)" cx="-21.417" cy="132.39" rx="1.3833" ry="1.3805" fill="#0f0"/>
<ellipse transform="matrix(.33216 -.94322 .96654 .2565 0 0)" cx="-34.118" cy="133.49" rx="1.3833" ry="1.3805" fill="#0f0"/>
<ellipse transform="matrix(.33216 -.94322 .96654 .2565 0 0)" cx="-37.827" cy="127.56" rx="1.3833" ry="1.3805" fill="#0f0"/>
<ellipse transform="matrix(.33216 -.94322 .96654 .2565 0 0)" cx="-29.968" cy="129.22" rx="1.3833" ry="1.3805" fill="#0f0"/>
<ellipse transform="matrix(.33216 -.94322 .96654 .2565 0 0)" cx="-28.585" cy="111.82" rx="1.3833" ry="1.3805" fill="#0f0"/>
<ellipse transform="matrix(.33216 -.94322 .96654 .2565 0 0)" cx="-31.226" cy="135.01" rx="1.3833" ry="1.3805" fill="#0f0"/>
<ellipse transform="matrix(.33216 -.94322 .96654 .2565 0 0)" cx="3.3211" cy="144.28" rx="1.3833" ry="1.3805" fill="#008000"/>
<ellipse transform="matrix(.33216 -.94322 .96654 .2565 0 0)" cx="-39.766" cy="98.599" rx="1.3833" ry="1.3805" fill="#008000"/>
<ellipse transform="matrix(.33216 -.94322 .96654 .2565 0 0)" cx="-23.799" cy="125.91" rx="1.3833" ry="1.3805" fill="#008000"/>
<ellipse transform="matrix(.33216 -.94322 .96654 .2565 0 0)" cx="-14.113" cy="72.094" rx="1.3833" ry="1.3805" fill="#008000"/>
<ellipse transform="matrix(.33216 -.94322 .96654 .2565 0 0)" cx="-27.509" cy="119.97" rx="1.3833" ry="1.3805" fill="#008000"/>
<ellipse transform="matrix(.33216 -.94322 .96654 .2565 0 0)" cx="-64.406" cy="118.76" rx="1.3833" ry="1.3805" fill="#008000"/>
<ellipse transform="matrix(.33216 -.94322 .96654 .2565 0 0)" cx="-49.574" cy="101.22" rx="1.3833" ry="1.3805" fill="#008000"/>
<ellipse transform="matrix(.33216 -.94322 .96654 .2565 0 0)" cx="2.7553" cy="131.16" rx="1.3833" ry="1.3805" fill="#008000"/>
<ellipse transform="matrix(.33216 -.94322 .96654 .2565 0 0)" cx="-50.832" cy="107.02" rx="1.3833" ry="1.3805" fill="#008000"/>
<ellipse transform="matrix(.33216 -.94322 .96654 .2565 0 0)" cx="-33.608" cy="128.53" rx="1.3833" ry="1.3805" fill="#008000"/>
<ellipse transform="matrix(.33216 -.94322 .96654 .2565 0 0)" cx="3.6984" cy="134.54" rx="1.3833" ry="1.3805" fill="#008000"/>
<ellipse transform="matrix(.33216 -.94322 .96654 .2565 0 0)" cx="-40.646" cy="94.665" rx="1.3833" ry="1.3805" fill="#008000"/>
<ellipse transform="matrix(.33216 -.94322 .96654 .2565 0 0)" cx="-60.319" cy="114.96" rx="1.3833" ry="1.3805" fill="#008000"/>
<ellipse transform="matrix(.33216 -.94322 .96654 .2565 0 0)" cx="-27.132" cy="110.24" rx="1.3833" ry="1.3805" fill="#008000"/>
<ellipse transform="matrix(.33216 -.94322 .96654 .2565 0 0)" cx="-29.772" cy="133.43" rx="1.3833" ry="1.3805" fill="#008000"/>
<ellipse transform="matrix(.33216 -.94322 .96654 .2565 0 0)" cx="1.7492" cy="138.82" rx="1.3833" ry="1.3805" fill="#008000"/>
<ellipse transform="matrix(.33216 -.94322 .96654 .2565 0 0)" cx=".49173" cy="144.62" rx="1.3833" ry="1.3805" fill="#008000"/>
<ellipse transform="matrix(.33216 -.94322 .96654 .2565 0 0)" cx="-33.231" cy="118.8" rx="1.3833" ry="1.3805" fill="#008000"/>
<ellipse transform="matrix(.33216 -.94322 .96654 .2565 0 0)" cx="-52.348" cy="102.98" rx="1.3833" ry="1.3805" fill="#0f0"/>
<ellipse transform="matrix(.33216 -.94322 .96654 .2565 0 0)" cx="-44.488" cy="104.63" rx="1.3833" ry="1.3805" fill="#0f0"/>
<ellipse transform="matrix(.33216 -.94322 .96654 .2565 0 0)" cx="-62.156" cy="105.6" rx="1.3833" ry="1.3805" fill="#0f0"/>
<ellipse transform="matrix(.33216 -.94322 .96654 .2565 0 0)" cx="-55.458" cy="149.7" rx="1.3833" ry="1.3805" fill="#0f0"/>
<ellipse transform="matrix(.33216 -.94322 .96654 .2565 0 0)" cx="-54.297" cy="107.26" rx="1.3833" ry="1.3805" fill="#0f0"/>
<ellipse transform="matrix(.33216 -.94322 .96654 .2565 0 0)" cx="-1.9674" cy="137.2" rx="1.3833" ry="1.3805" fill="#0f0"/>
<ellipse transform="matrix(.33216 -.94322 .96654 .2565 0 0)" cx="-1.0243" cy="140.58" rx="1.3833" ry="1.3805" fill="#0f0"/>
<ellipse transform="matrix(.33216 -.94322 .96654 .2565 0 0)" cx="6.8351" cy="142.23" rx="1.3833" ry="1.3805" fill="#0f0"/>
<ellipse transform="matrix(.33216 -.94322 .96654 .2565 0 0)" cx="-45.369" cy="100.7" rx="1.3833" ry="1.3805" fill="#0f0"/>
<ellipse transform="matrix(.33216 -.94322 .96654 .2565 0 0)" cx="-58.07" cy="101.8" rx="1.3833" ry="1.3805" fill="#0f0"/>
<ellipse transform="matrix(.33216 -.94322 .96654 .2565 0 0)" cx="-10.833" cy="143.2" rx="1.3833" ry="1.3805" fill="#0f0"/>
<ellipse transform="matrix(.33216 -.94322 .96654 .2565 0 0)" cx="-2.9734" cy="144.86" rx="1.3833" ry="1.3805" fill="#0f0"/>
<ellipse transform="matrix(.33216 -.94322 .96654 .2565 0 0)" cx="-56.338" cy="145.76" rx="1.3833" ry="1.3805" fill="#0f0"/>
<ellipse transform="matrix(.33216 -.94322 .96654 .2565 0 0)" cx="-55.177" cy="103.32" rx="1.3833" ry="1.3805" fill="#0f0"/>
<ellipse transform="matrix(.33216 -.94322 .96654 .2565 0 0)" cx="3.1954" cy="141.55" rx="1.3833" ry="1.3805" fill="#008000"/>
<ellipse transform="matrix(.33216 -.94322 .96654 .2565 0 0)" cx="-.51426" cy="135.61" rx="1.3833" ry="1.3805" fill="#008000"/>
<ellipse transform="matrix(.33216 -.94322 .96654 .2565 0 0)" cx="-6.6132" cy="144.17" rx="1.3833" ry="1.3805" fill="#008000"/>
<ellipse transform="matrix(.33216 -.94322 .96654 .2565 0 0)" cx="3.5726" cy="131.82" rx="1.3833" ry="1.3805" fill="#008000"/>
<ellipse transform="matrix(.33216 -.94322 .96654 .2565 0 0)" cx="-54.885" cy="144.18" rx="1.3833" ry="1.3805" fill="#008000"/>
<ellipse transform="matrix(.33216 -.94322 .96654 .2565 0 0)" cx="-53.724" cy="101.74" rx="1.3833" ry="1.3805" fill="#008000"/>
<ellipse transform="matrix(.33216 -.94322 .96654 .2565 0 0)" cx="-6.2359" cy="134.44" rx="1.3833" ry="1.3805" fill="#008000"/>
<ellipse transform="matrix(.33216 -.94322 .96654 .2565 0 0)" cx="-44.675" cy="118.64" rx="1.3833" ry="1.3805" fill="#0f0"/>
<ellipse transform="matrix(.33216 -.94322 .96654 .2565 0 0)" cx="-36.816" cy="120.29" rx="1.3833" ry="1.3805" fill="#0f0"/>
<ellipse transform="matrix(.33216 -.94322 .96654 .2565 0 0)" cx="-38.073" cy="126.09" rx="1.3833" ry="1.3805" fill="#0f0"/>
<ellipse transform="matrix(.33216 -.94322 .96654 .2565 0 0)" cx="-2.9431" cy="108.75" rx="1.3833" ry="1.3805" fill="#0f0"/>
<ellipse transform="matrix(.33216 -.94322 .96654 .2565 0 0)" cx="-46.624" cy="122.91" rx="1.3833" ry="1.3805" fill="#0f0"/>
<ellipse transform="matrix(.33216 -.94322 .96654 .2565 0 0)" cx="-9.042" cy="117.31" rx="1.3833" ry="1.3805" fill="#0f0"/>
<ellipse transform="matrix(.33216 -.94322 .96654 .2565 0 0)" cx="-44.298" cy="108.9" rx="1.3833" ry="1.3805" fill="#0f0"/>
<ellipse transform="matrix(.33216 -.94322 .96654 .2565 0 0)" cx="-36.438" cy="110.56" rx="1.3833" ry="1.3805" fill="#0f0"/>
<ellipse transform="matrix(.33216 -.94322 .96654 .2565 0 0)" cx="-37.696" cy="116.36" rx="1.3833" ry="1.3805" fill="#0f0"/>
<ellipse transform="matrix(.33216 -.94322 .96654 .2565 0 0)" cx="-50.397" cy="117.46" rx="1.3833" ry="1.3805" fill="#0f0"/>
<ellipse transform="matrix(.33216 -.94322 .96654 .2565 0 0)" cx="-46.247" cy="113.18" rx="1.3833" ry="1.3805" fill="#0f0"/>
<ellipse transform="matrix(.33216 -.94322 .96654 .2565 0 0)" cx="-8.6647" cy="107.58" rx="1.3833" ry="1.3805" fill="#0f0"/>
<ellipse transform="matrix(.33216 -.94322 .96654 .2565 0 0)" cx="-39.121" cy="132.29" rx="1.3833" ry="1.3805" fill="#008000"/>
<ellipse transform="matrix(.33216 -.94322 .96654 .2565 0 0)" cx="-59.846" cy="148.2" rx="1.3833" ry="1.3805" fill="#008000"/>
<ellipse transform="matrix(.33216 -.94322 .96654 .2565 0 0)" cx="-58.463" cy="130.81" rx="1.3833" ry="1.3805" fill="#008000"/>
<ellipse transform="matrix(.33216 -.94322 .96654 .2565 0 0)" cx="-6.3559" cy="135.7" rx="1.3833" ry="1.3805" fill="#008000"/>
<ellipse transform="matrix(.33216 -.94322 .96654 .2565 0 0)" cx="-40.078" cy="109.87" rx="1.3833" ry="1.3805" fill="#008000"/>
<ellipse transform="matrix(.33216 -.94322 .96654 .2565 0 0)" cx="-67.014" cy="127.63" rx="1.3833" ry="1.3805" fill="#008000"/>
<ellipse transform="matrix(.33216 -.94322 .96654 .2565 0 0)" cx="-41.07" cy="136.57" rx="1.3833" ry="1.3805" fill="#008000"/>
<ellipse transform="matrix(.33216 -.94322 .96654 .2565 0 0)" cx="-68.272" cy="133.43" rx="1.3833" ry="1.3805" fill="#008000"/>
<ellipse transform="matrix(.33216 -.94322 .96654 .2565 0 0)" cx="-16.164" cy="138.32" rx="1.3833" ry="1.3805" fill="#008000"/>
<ellipse transform="matrix(.33216 -.94322 .96654 .2565 0 0)" cx="-49.887" cy="112.5" rx="1.3833" ry="1.3805" fill="#008000"/>
<ellipse transform="matrix(.33216 -.94322 .96654 .2565 0 0)" cx="-67.329" cy="136.81" rx="1.3833" ry="1.3805" fill="#008000"/>
<ellipse transform="matrix(.33216 -.94322 .96654 .2565 0 0)" cx="-15.221" cy="141.7" rx="1.3833" ry="1.3805" fill="#008000"/>
<ellipse transform="matrix(.33216 -.94322 .96654 .2565 0 0)" cx="-13.813" cy="114.14" rx="1.3833" ry="1.3805" fill="#008000"/>
<ellipse transform="matrix(.33216 -.94322 .96654 .2565 0 0)" cx="-59.469" cy="138.47" rx="1.3833" ry="1.3805" fill="#008000"/>
<ellipse transform="matrix(.33216 -.94322 .96654 .2565 0 0)" cx="-15.071" cy="119.94" rx="1.3833" ry="1.3805" fill="#008000"/>
<ellipse transform="matrix(.33216 -.94322 .96654 .2565 0 0)" cx="-60.727" cy="144.27" rx="1.3833" ry="1.3805" fill="#008000"/>
<ellipse transform="matrix(.33216 -.94322 .96654 .2565 0 0)" cx="-44.618" cy="129.2" rx="1.3833" ry="1.3805" fill="#008000"/>
<ellipse transform="matrix(.33216 -.94322 .96654 .2565 0 0)" cx="-40.692" cy="126.84" rx="1.3833" ry="1.3805" fill="#008000"/>
<ellipse transform="matrix(.33216 -.94322 .96654 .2565 0 0)" cx="-67.894" cy="123.7" rx="1.3833" ry="1.3805" fill="#008000"/>
<ellipse transform="matrix(.33216 -.94322 .96654 .2565 0 0)" cx="-41.95" cy="132.64" rx="1.3833" ry="1.3805" fill="#008000"/>
<ellipse transform="matrix(.33216 -.94322 .96654 .2565 0 0)" cx="-43.843" cy="138.33" rx="1.3833" ry="1.3805" fill="#0f0"/>
<ellipse transform="matrix(.33216 -.94322 .96654 .2565 0 0)" cx="-61.928" cy="131.04" rx="1.3833" ry="1.3805" fill="#0f0"/>
<ellipse transform="matrix(.33216 -.94322 .96654 .2565 0 0)" cx="-9.821" cy="135.93" rx="1.3833" ry="1.3805" fill="#0f0"/>
<ellipse transform="matrix(.33216 -.94322 .96654 .2565 0 0)" cx="-63.186" cy="136.84" rx="1.3833" ry="1.3805" fill="#0f0"/>
<ellipse transform="matrix(.33216 -.94322 .96654 .2565 0 0)" cx="-71.737" cy="133.67" rx="1.3833" ry="1.3805" fill="#0f0"/>
<ellipse transform="matrix(.33216 -.94322 .96654 .2565 0 0)" cx="-72.994" cy="139.46" rx="1.3833" ry="1.3805" fill="#0f0"/>
<ellipse transform="matrix(.33216 -.94322 .96654 .2565 0 0)" cx="-43.466" cy="128.59" rx="1.3833" ry="1.3805" fill="#0f0"/>
<ellipse transform="matrix(.33216 -.94322 .96654 .2565 0 0)" cx="-61.551" cy="121.31" rx="1.3833" ry="1.3805" fill="#0f0"/>
<ellipse transform="matrix(.33216 -.94322 .96654 .2565 0 0)" cx="-64.192" cy="144.5" rx="1.3833" ry="1.3805" fill="#0f0"/>
<ellipse transform="matrix(.33216 -.94322 .96654 .2565 0 0)" cx="-62.809" cy="127.11" rx="1.3833" ry="1.3805" fill="#0f0"/>
<ellipse transform="matrix(.33216 -.94322 .96654 .2565 0 0)" cx="-36.864" cy="136.05" rx="1.3833" ry="1.3805" fill="#0f0"/>
<ellipse transform="matrix(.33216 -.94322 .96654 .2565 0 0)" cx="-51.327" cy="130.23" rx="1.3833" ry="1.3805" fill="#0f0"/>
<ellipse transform="matrix(.33216 -.94322 .96654 .2565 0 0)" cx="-45.415" cy="132.87" rx="1.3833" ry="1.3805" fill="#0f0"/>
<ellipse transform="matrix(.33216 -.94322 .96654 .2565 0 0)" cx="-52.584" cy="136.03" rx="1.3833" ry="1.3805" fill="#0f0"/>
<ellipse transform="matrix(.33216 -.94322 .96654 .2565 0 0)" cx="-58.087" cy="112.7" rx="1.3833" ry="1.3805" fill="#008000"/>
<ellipse cx="100.2" cy="107.53" rx="1.5384" ry="1.2373" fill="#0f0"/>
<ellipse cx="99.529" cy="110.28" rx="1.5384" ry="1.2373" fill="#0f0"/>
<ellipse transform="rotate(-3.1033)" cx="91.603" cy="110.47" rx="1.5384" ry="1.2373" fill="#0f0"/>
<ellipse cx="102.75" cy="111.65" rx="1.5384" ry="1.2373" fill="#0f0"/>
<ellipse transform="rotate(-3.1033)" cx="96.296" cy="111.34" rx="1.5384" ry="1.2373" fill="#008000"/>
<ellipse transform="matrix(.33216 -.94322 .96654 .2565 0 0)" cx="-65.814" cy="126.52" rx="1.3833" ry="1.3805" fill="#0f0"/>
<ellipse transform="matrix(.33216 -.94322 .96654 .2565 0 0)" cx="-75.622" cy="129.14" rx="1.3833" ry="1.3805" fill="#0f0"/>
<ellipse transform="matrix(.38274 -.92386 .95124 .30845 0 0)" cx="-70.445" cy="136.35" rx="1.3833" ry="1.3805" fill="#0f0"/>
<ellipse transform="matrix(.33216 -.94322 .96654 .2565 0 0)" cx="-75.426" cy="133.36" rx="1.3833" ry="1.3805" fill="#008000"/>
<ellipse transform="matrix(.33216 -.94322 .96654 .2565 0 0)" cx="-60.595" cy="115.82" rx="1.3833" ry="1.3805" fill="#008000"/>
<ellipse transform="matrix(.33216 -.94322 .96654 .2565 0 0)" cx="-61.852" cy="121.62" rx="1.3833" ry="1.3805" fill="#008000"/>
<ellipse transform="matrix(.33216 -.94322 .96654 .2565 0 0)" cx="-71.34" cy="129.56" rx="1.3833" ry="1.3805" fill="#008000"/>
<ellipse transform="matrix(.33216 -.94322 .96654 .2565 0 0)" cx="-63.368" cy="117.58" rx="1.3833" ry="1.3805" fill="#0f0"/>
<ellipse transform="matrix(.33216 -.94322 .96654 .2565 0 0)" cx="-73.177" cy="120.2" rx="1.3833" ry="1.3805" fill="#0f0"/>
<ellipse transform="matrix(.33216 -.94322 .96654 .2565 0 0)" cx="-65.318" cy="121.85" rx="1.3833" ry="1.3805" fill="#0f0"/>
<ellipse transform="matrix(.33216 -.94322 .96654 .2565 0 0)" cx="-69.09" cy="116.4" rx="1.3833" ry="1.3805" fill="#0f0"/>
<ellipse transform="matrix(.33216 -.94322 .96654 .2565 0 0)" cx="-66.198" cy="117.92" rx="1.3833" ry="1.3805" fill="#0f0"/>
<ellipse transform="matrix(.33216 -.94322 .96654 .2565 0 0)" cx="-64.745" cy="116.34" rx="1.3833" ry="1.3805" fill="#008000"/>
<ellipse transform="rotate(-3.1033)" cx="93.701" cy="107.9" rx="1.5384" ry="1.2373" fill="#0f0"/>
<ellipse transform="rotate(-3.1033)" cx="93.001" cy="98.437" rx="1.5384" ry="1.2373" fill="#0f0"/>
<ellipse transform="rotate(-3.1033)" cx="95.317" cy="106.48" rx="1.5384" ry="1.2373" fill="#008000"/>
<ellipse transform="rotate(-3.1033)" cx="98.698" cy="102.25" rx="1.5384" ry="1.2373" fill="#0f0"/>
<ellipse transform="rotate(-3.1033)" cx="99.118" cy="93.525" rx="1.5384" ry="1.2373" fill="#0f0"/>
<ellipse transform="rotate(-3.1033)" cx="92.335" cy="101.2" rx="1.5384" ry="1.2373" fill="#0f0"/>
<ellipse transform="rotate(-3.1033)" cx="96.95" cy="97.36" rx="1.5384" ry="1.2373" fill="#0f0"/>
<ellipse transform="rotate(-3.1033)" cx="95.552" cy="102.56" rx="1.5384" ry="1.2373" fill="#0f0"/>
<ellipse transform="rotate(-3.1033)" cx="92.902" cy="96.745" rx="1.5384" ry="1.2373" fill="#008000"/>
<ellipse transform="rotate(-3.1033)" cx="97.168" cy="101.14" rx="1.5384" ry="1.2373" fill="#008000"/>
<ellipse transform="matrix(.33216 -.94322 .96654 .2565 0 0)" cx="-52.933" cy="117.77" rx="1.3833" ry="1.3805" fill="#0f0"/>
<ellipse transform="matrix(.33216 -.94322 .96654 .2565 0 0)" cx="-54.191" cy="123.57" rx="1.3833" ry="1.3805" fill="#0f0"/>
<ellipse transform="matrix(.33216 -.94322 .96654 .2565 0 0)" cx="-63.999" cy="126.19" rx="1.3833" ry="1.3805" fill="#0f0"/>
<ellipse transform="matrix(.33216 -.94322 .96654 .2565 0 0)" cx="-62.546" cy="124.61" rx="1.3833" ry="1.3805" fill="#008000"/>
<ellipse transform="matrix(.33216 -.94322 .96654 .2565 0 0)" cx="-58.459" cy="120.81" rx="1.3833" ry="1.3805" fill="#008000"/>
<ellipse transform="matrix(.33216 -.94322 .96654 .2565 0 0)" cx="-48.537" cy="123.31" rx="1.3833" ry="1.3805" fill="#0f0"/>
<ellipse transform="matrix(.33216 -.94322 .96654 .2565 0 0)" cx="-66.034" cy="129.54" rx="1.3833" ry="1.3805" fill="#008000"/>
<ellipse transform="matrix(.33216 -.94322 .96654 .2565 0 0)" cx="-59.691" cy="127.16" rx="1.3833" ry="1.3805" fill="#0f0"/>
<ellipse transform="matrix(.33216 -.94322 .96654 .2565 0 0)" cx="-56.227" cy="118.55" rx="1.3833" ry="1.3805" fill="#008000"/>
<ellipse transform="matrix(.33216 -.94322 .96654 .2565 0 0)" cx="-58.735" cy="121.67" rx="1.3833" ry="1.3805" fill="#008000"/>
<ellipse transform="matrix(.33216 -.94322 .96654 .2565 0 0)" cx="-59.992" cy="127.47" rx="1.3833" ry="1.3805" fill="#008000"/>
<ellipse transform="matrix(.33216 -.94322 .96654 .2565 0 0)" cx="-61.508" cy="123.42" rx="1.3833" ry="1.3805" fill="#0f0"/>
<ellipse transform="matrix(.33216 -.94322 .96654 .2565 0 0)" cx="-71.317" cy="126.05" rx="1.3833" ry="1.3805" fill="#0f0"/>
<ellipse transform="matrix(.33216 -.94322 .96654 .2565 0 0)" cx="-63.458" cy="127.7" rx="1.3833" ry="1.3805" fill="#0f0"/>
<ellipse transform="matrix(.33216 -.94322 .96654 .2565 0 0)" cx="-64.338" cy="123.77" rx="1.3833" ry="1.3805" fill="#0f0"/>
<ellipse transform="matrix(.33216 -.94322 .96654 .2565 0 0)" cx="-62.885" cy="122.18" rx="1.3833" ry="1.3805" fill="#008000"/>
<ellipse transform="matrix(.33216 -.94322 .96654 .2565 0 0)" cx="-57.267" cy="127.78" rx="1.3833" ry="1.3805" fill="#0f0"/>
<ellipse transform="matrix(.33216 -.94322 .96654 .2565 0 0)" cx="-49.532" cy="90.546" rx="1.3833" ry="1.3805" fill="#008000"/>
<ellipse transform="matrix(.33216 -.94322 .96654 .2565 0 0)" cx="-69.107" cy="127.3" rx="1.3833" ry="1.3805" fill="#008000"/>
<ellipse transform="matrix(.33216 -.94322 .96654 .2565 0 0)" cx="-71.541" cy="137.88" rx="1.3833" ry="1.3805" fill="#008000"/>
<ellipse transform="matrix(.33216 -.94322 .96654 .2565 0 0)" cx="-67.454" cy="134.08" rx="1.3833" ry="1.3805" fill="#008000"/>
<ellipse transform="matrix(.33216 -.94322 .96654 .2565 0 0)" cx="-15.347" cy="138.97" rx="1.3833" ry="1.3805" fill="#008000"/>
<ellipse transform="matrix(.33216 -.94322 .96654 .2565 0 0)" cx="-51.131" cy="134.45" rx="1.3833" ry="1.3805" fill="#008000"/>
<ellipse transform="matrix(.33216 -.94322 .96654 .2565 0 0)" cx="-45.219" cy="137.09" rx="1.3833" ry="1.3805" fill="#008000"/>
<ellipse transform="rotate(-3.1033)" cx="139.08" cy="77.843" rx="1.5384" ry="1.2373" fill="#008000"/>
<ellipse transform="matrix(.33216 -.94322 .96654 .2565 0 0)" cx="-18.958" cy="151.97" rx="1.3833" ry="1.3805" fill="#0f0"/>
<ellipse transform="matrix(.33216 -.94322 .96654 .2565 0 0)" cx="-24.68" cy="150.8" rx="1.3833" ry="1.3805" fill="#0f0"/>
<ellipse transform="matrix(.33216 -.94322 .96654 .2565 0 0)" cx="-28.389" cy="144.86" rx="1.3833" ry="1.3805" fill="#0f0"/>
<ellipse transform="matrix(.33216 -.94322 .96654 .2565 0 0)" cx="-20.53" cy="146.52" rx="1.3833" ry="1.3805" fill="#0f0"/>
<ellipse transform="matrix(.33216 -.94322 .96654 .2565 0 0)" cx="-21.788" cy="152.32" rx="1.3833" ry="1.3805" fill="#0f0"/>
<ellipse transform="matrix(.33216 -.94322 .96654 .2565 0 0)" cx="-24.17" cy="145.83" rx="1.3833" ry="1.3805" fill="#008000"/>
<ellipse transform="matrix(.33216 -.94322 .96654 .2565 0 0)" cx="-20.334" cy="150.73" rx="1.3833" ry="1.3805" fill="#008000"/>
<ellipse transform="matrix(.33216 -.94322 .96654 .2565 0 0)" cx="-23.793" cy="136.1" rx="1.3833" ry="1.3805" fill="#008000"/>
<ellipse transform="matrix(.33216 -.94322 .96654 .2565 0 0)" cx="-35.237" cy="135.94" rx="1.3833" ry="1.3805" fill="#0f0"/>
<ellipse transform="matrix(.33216 -.94322 .96654 .2565 0 0)" cx="-27.378" cy="137.6" rx="1.3833" ry="1.3805" fill="#0f0"/>
<ellipse transform="matrix(.33216 -.94322 .96654 .2565 0 0)" cx="-28.635" cy="143.39" rx="1.3833" ry="1.3805" fill="#0f0"/>
<ellipse transform="matrix(.33216 -.94322 .96654 .2565 0 0)" cx="-37.186" cy="140.22" rx="1.3833" ry="1.3805" fill="#0f0"/>
<ellipse transform="matrix(.33216 -.94322 .96654 .2565 0 0)" cx="-27" cy="127.86" rx="1.3833" ry="1.3805" fill="#0f0"/>
<ellipse transform="matrix(.33216 -.94322 .96654 .2565 0 0)" cx="-28.258" cy="133.66" rx="1.3833" ry="1.3805" fill="#0f0"/>
<ellipse transform="matrix(.33216 -.94322 .96654 .2565 0 0)" cx="-40.959" cy="134.77" rx="1.3833" ry="1.3805" fill="#0f0"/>
<ellipse transform="matrix(.33216 -.94322 .96654 .2565 0 0)" cx="-29.683" cy="149.6" rx="1.3833" ry="1.3805" fill="#008000"/>
<ellipse transform="matrix(.33216 -.94322 .96654 .2565 0 0)" cx="-31.632" cy="153.88" rx="1.3833" ry="1.3805" fill="#008000"/>
<ellipse transform="matrix(.33216 -.94322 .96654 .2565 0 0)" cx="-35.18" cy="146.51" rx="1.3833" ry="1.3805" fill="#008000"/>
<ellipse transform="matrix(.33216 -.94322 .96654 .2565 0 0)" cx="-31.255" cy="144.14" rx="1.3833" ry="1.3805" fill="#008000"/>
<ellipse transform="matrix(.33216 -.94322 .96654 .2565 0 0)" cx="-32.512" cy="149.94" rx="1.3833" ry="1.3805" fill="#008000"/>
<ellipse transform="matrix(.33216 -.94322 .96654 .2565 0 0)" cx="-34.405" cy="155.63" rx="1.3833" ry="1.3805" fill="#0f0"/>
<ellipse transform="matrix(.33216 -.94322 .96654 .2565 0 0)" cx="-34.028" cy="145.9" rx="1.3833" ry="1.3805" fill="#0f0"/>
<ellipse transform="matrix(.33216 -.94322 .96654 .2565 0 0)" cx="-8.3147" cy="126.65" rx="1.3833" ry="1.3805" fill="#0f0"/>
<ellipse transform="matrix(.33216 -.94322 .96654 .2565 0 0)" cx="-35.977" cy="150.18" rx="1.3833" ry="1.3805" fill="#0f0"/>
<ellipse transform="matrix(.33216 -.94322 .96654 .2565 0 0)" cx="-35.782" cy="154.39" rx="1.3833" ry="1.3805" fill="#008000"/>
<ellipse transform="rotate(-3.1033)" cx="144.8" cy="60.501" rx="1.5384" ry="1.2373" fill="#0f0"/>
<ellipse transform="rotate(-3.1033)" cx="140.75" cy="59.886" rx="1.5384" ry="1.2373" fill="#008000"/>
<ellipse transform="rotate(-3.1033)" cx="150.34" cy="50.132" rx="1.5384" ry="1.2373" fill="#008000"/>
<ellipse transform="matrix(.33216 -.94322 .96654 .2565 0 0)" cx="5.2478" cy="150.6" rx="1.3833" ry="1.3805" fill="#0f0"/>
<ellipse transform="matrix(.33216 -.94322 .96654 .2565 0 0)" cx="1.5382" cy="144.66" rx="1.3833" ry="1.3805" fill="#0f0"/>
<ellipse transform="matrix(.33216 -.94322 .96654 .2565 0 0)" cx="8.1401" cy="152.12" rx="1.3833" ry="1.3805" fill="#0f0"/>
<ellipse transform="matrix(.33216 -.94322 .96654 .2565 0 0)" cx="5.7579" cy="145.63" rx="1.3833" ry="1.3805" fill="#008000"/>
<ellipse transform="matrix(.33216 -.94322 .96654 .2565 0 0)" cx=".24502" cy="149.39" rx="1.3833" ry="1.3805" fill="#008000"/>
<ellipse transform="matrix(.33216 -.94322 .96654 .2565 0 0)" cx="-1.7041" cy="153.67" rx="1.3833" ry="1.3805" fill="#008000"/>
<ellipse transform="matrix(.33216 -.94322 .96654 .2565 0 0)" cx="-5.2529" cy="146.3" rx="1.3833" ry="1.3805" fill="#008000"/>
<ellipse transform="matrix(.33216 -.94322 .96654 .2565 0 0)" cx="-2.5844" cy="149.74" rx="1.3833" ry="1.3805" fill="#008000"/>
<ellipse transform="matrix(.33216 -.94322 .96654 .2565 0 0)" cx="-4.4777" cy="155.43" rx="1.3833" ry="1.3805" fill="#0f0"/>
<ellipse transform="matrix(.33216 -.94322 .96654 .2565 0 0)" cx="-4.1004" cy="145.7" rx="1.3833" ry="1.3805" fill="#0f0"/>
<ellipse transform="matrix(.33216 -.94322 .96654 .2565 0 0)" cx="2.5015" cy="153.15" rx="1.3833" ry="1.3805" fill="#0f0"/>
<ellipse transform="matrix(.33216 -.94322 .96654 .2565 0 0)" cx="-6.0495" cy="149.98" rx="1.3833" ry="1.3805" fill="#0f0"/>
<ellipse transform="matrix(.33216 -.94322 .96654 .2565 0 0)" cx="-5.8539" cy="154.19" rx="1.3833" ry="1.3805" fill="#008000"/>
<ellipse transform="rotate(-3.1033)" cx="143.16" cy="78.174" rx="1.5384" ry="1.2373" fill="#0f0"/>
<ellipse transform="rotate(-3.1033)" cx="139.11" cy="77.558" rx="1.5384" ry="1.2373" fill="#008000"/>
<ellipse transform="rotate(-3.1033)" cx="148.69" cy="67.804" rx="1.5384" ry="1.2373" fill="#008000"/>
<ellipse transform="matrix(.33216 -.94322 .96654 .2565 0 0)" cx="-12.124" cy="155.86" rx="1.3833" ry="1.3805" fill="#0f0"/>
<ellipse transform="matrix(.33216 -.94322 .96654 .2565 0 0)" cx="-15.834" cy="149.92" rx="1.3833" ry="1.3805" fill="#0f0"/>
<ellipse transform="matrix(.33216 -.94322 .96654 .2565 0 0)" cx="-9.2319" cy="157.38" rx="1.3833" ry="1.3805" fill="#0f0"/>
<ellipse transform="matrix(.33216 -.94322 .96654 .2565 0 0)" cx="-11.614" cy="150.89" rx="1.3833" ry="1.3805" fill="#008000"/>
<ellipse transform="matrix(.33216 -.94322 .96654 .2565 0 0)" cx="-17.127" cy="154.66" rx="1.3833" ry="1.3805" fill="#008000"/>
<ellipse transform="matrix(.33216 -.94322 .96654 .2565 0 0)" cx="-19.076" cy="158.93" rx="1.3833" ry="1.3805" fill="#008000"/>
<ellipse transform="matrix(.33216 -.94322 .96654 .2565 0 0)" cx="-22.625" cy="151.57" rx="1.3833" ry="1.3805" fill="#008000"/>
<ellipse transform="matrix(.33216 -.94322 .96654 .2565 0 0)" cx="-19.956" cy="155" rx="1.3833" ry="1.3805" fill="#008000"/>
<ellipse transform="matrix(.33216 -.94322 .96654 .2565 0 0)" cx="-21.85" cy="160.69" rx="1.3833" ry="1.3805" fill="#0f0"/>
<ellipse transform="matrix(.38274 -.92386 .95124 .30845 0 0)" cx="16.43" cy="160.01" rx="1.3833" ry="1.3805" fill="#0f0"/>
<ellipse transform="matrix(.33216 -.94322 .96654 .2565 0 0)" cx="-14.87" cy="158.41" rx="1.3833" ry="1.3805" fill="#0f0"/>
<ellipse transform="matrix(.33216 -.94322 .96654 .2565 0 0)" cx="-23.422" cy="155.24" rx="1.3833" ry="1.3805" fill="#0f0"/>
<ellipse transform="matrix(.33216 -.94322 .96654 .2565 0 0)" cx="-23.226" cy="159.45" rx="1.3833" ry="1.3805" fill="#008000"/>
<ellipse transform="rotate(-38.192)" cx="18.881" cy="93.557" rx="1.5384" ry="1.2373" fill="#0f0"/>
<ellipse transform="rotate(-38.192)" cx="14.833" cy="92.941" rx="1.5384" ry="1.2373" fill="#008000"/>
<ellipse transform="rotate(-38.192)" cx="24.417" cy="83.187" rx="1.5384" ry="1.2373" fill="#008000"/>
<ellipse transform="matrix(-.27042 -.96274 .93833 -.34573 0 0)" cx="-59.536" cy="47.762" rx="1.3833" ry="1.3805" fill="#0f0"/>
<ellipse transform="matrix(-.27042 -.96274 .93833 -.34573 0 0)" cx="-65.257" cy="46.589" rx="1.3833" ry="1.3805" fill="#0f0"/>
<ellipse transform="matrix(-.27042 -.96274 .93833 -.34573 0 0)" cx="-61.107" cy="42.309" rx="1.3833" ry="1.3805" fill="#0f0"/>
<ellipse transform="matrix(-.27042 -.96274 .93833 -.34573 0 0)" cx="-62.365" cy="48.107" rx="1.3833" ry="1.3805" fill="#0f0"/>
<ellipse transform="matrix(-.27042 -.96274 .93833 -.34573 0 0)" cx="-64.747" cy="41.622" rx="1.3833" ry="1.3805" fill="#008000"/>
<ellipse transform="matrix(-.27042 -.96274 .93833 -.34573 0 0)" cx="-47.725" cy="40.499" rx="1.3833" ry="1.3805" fill="#008000"/>
<ellipse transform="matrix(-.27042 -.96274 .93833 -.34573 0 0)" cx="-70.26" cy="45.386" rx="1.3833" ry="1.3805" fill="#008000"/>
<ellipse transform="matrix(-.27042 -.96274 .93833 -.34573 0 0)" cx="-72.209" cy="49.665" rx="1.3833" ry="1.3805" fill="#008000"/>
<ellipse transform="matrix(-.27042 -.96274 .93833 -.34573 0 0)" cx="-73.089" cy="45.731" rx="1.3833" ry="1.3805" fill="#008000"/>
<ellipse transform="matrix(-.27042 -.96274 .93833 -.34573 0 0)" cx="-74.983" cy="51.42" rx="1.3833" ry="1.3805" fill="#0f0"/>
<ellipse transform="matrix(-.27042 -.96274 .93833 -.34573 0 0)" cx="-68.004" cy="49.143" rx="1.3833" ry="1.3805" fill="#0f0"/>
<ellipse transform="matrix(-.27042 -.96274 .93833 -.34573 0 0)" cx="-76.555" cy="45.967" rx="1.3833" ry="1.3805" fill="#0f0"/>
<ellipse transform="matrix(-.27042 -.96274 .93833 -.34573 0 0)" cx="-76.359" cy="50.181" rx="1.3833" ry="1.3805" fill="#008000"/>
<ellipse transform="matrix(.33216 -.94322 .96654 .2565 0 0)" cx="-54.388" cy="95.962" rx="1.3833" ry="1.3805" fill="#008000"/>
<ellipse transform="matrix(.020942 -.99978 .99999 .004666 0 0)" cx="-69.339" cy="81.182" rx="1.3619" ry="1.3979" fill="#008000"/>
<ellipse transform="matrix(.020942 -.99978 .99999 .004666 0 0)" cx="-33.253" cy="140.33" rx="1.3619" ry="1.3979" fill="#008000"/>
<ellipse transform="matrix(-.94921 -.31463 .39944 -.91676 0 0)" cx="-92.139" cy="-3.4255" rx="1.5107" ry="1.2653" fill="#0f0"/>
<ellipse transform="matrix(-.94921 -.31463 .39944 -.91676 0 0)" cx="-87.676" cy="-6.905" rx="1.5107" ry="1.2653" fill="#0f0"/>
<ellipse transform="matrix(-.94921 -.31463 .39944 -.91676 0 0)" cx="-91.727" cy="-12.346" rx="1.5107" ry="1.2653" fill="#0f0"/>
<ellipse transform="matrix(-.94921 -.31463 .39944 -.91676 0 0)" cx="-84.517" cy="-5.5132" rx="1.5107" ry="1.2653" fill="#0f0"/>
<ellipse transform="matrix(-.94921 -.31463 .39944 -.91676 0 0)" cx="-87.119" cy="-11.457" rx="1.5107" ry="1.2653" fill="#008000"/>
<ellipse transform="matrix(-.94921 -.31463 .39944 -.91676 0 0)" cx="-94.048" cy="-26.056" rx="1.5107" ry="1.2653" fill="#008000"/>
<ellipse transform="matrix(-.94921 -.31463 .39944 -.91676 0 0)" cx="-96.177" cy="-22.133" rx="1.5107" ry="1.2653" fill="#008000"/>
<ellipse transform="matrix(-.94921 -.31463 .39944 -.91676 0 0)" cx="-97.55" cy="-16.819" rx="1.5107" ry="1.2653" fill="#008000"/>
<ellipse transform="matrix(-.94921 -.31463 .39944 -.91676 0 0)" cx="-96.52" cy="-13.719" rx="1.5107" ry="1.2653" fill="#008000"/>
<ellipse transform="matrix(-.94921 -.31463 .39944 -.91676 0 0)" cx="-95.765" cy="-31.054" rx="1.5107" ry="1.2653" fill="#008000"/>
<ellipse transform="matrix(-.94921 -.31463 .39944 -.91676 0 0)" cx="-97.138" cy="-25.739" rx="1.5107" ry="1.2653" fill="#008000"/>
<ellipse transform="matrix(-.94921 -.31463 .39944 -.91676 0 0)" cx="-99.206" cy="-20.525" rx="1.5107" ry="1.2653" fill="#0f0"/>
<ellipse transform="matrix(-.94921 -.31463 .39944 -.91676 0 0)" cx="-90.622" cy="-19.007" rx="1.5107" ry="1.2653" fill="#0f0"/>
<ellipse transform="matrix(-.94921 -.31463 .39944 -.91676 0 0)" cx="-98.45" cy="-37.859" rx="1.5107" ry="1.2653" fill="#0f0"/>
<ellipse transform="matrix(-.94921 -.31463 .39944 -.91676 0 0)" cx="-99.824" cy="-32.545" rx="1.5107" ry="1.2653" fill="#0f0"/>
<ellipse transform="matrix(-.94921 -.31463 .39944 -.91676 0 0)" cx="-98.794" cy="-29.445" rx="1.5107" ry="1.2653" fill="#0f0"/>
<ellipse transform="matrix(-.94921 -.31463 .39944 -.91676 0 0)" cx="-91.584" cy="-22.613" rx="1.5107" ry="1.2653" fill="#0f0"/>
<ellipse transform="matrix(-.94921 -.31463 .39944 -.91676 0 0)" cx="-100.92" cy="-25.523" rx="1.5107" ry="1.2653" fill="#0f0"/>
<ellipse transform="matrix(-.94921 -.31463 .39944 -.91676 0 0)" cx="-142.7" cy="12.565" rx="1.5107" ry="1.2653" fill="#0f0"/>
<ellipse transform="matrix(-.94921 -.31463 .39944 -.91676 0 0)" cx="-94.185" cy="-28.556" rx="1.5107" ry="1.2653" fill="#008000"/>
<ellipse transform="matrix(-.94921 -.31463 .39944 -.91676 0 0)" cx="-98.237" cy="-33.997" rx="1.5107" ry="1.2653" fill="#008000"/>
<ellipse transform="matrix(-.94921 -.31463 .39944 -.91676 0 0)" cx="-96.657" cy="-16.22" rx="1.5107" ry="1.2653" fill="#008000"/>
<ellipse transform="matrix(-.94921 -.31463 .39944 -.91676 0 0)" cx="-100.71" cy="-21.66" rx="1.5107" ry="1.2653" fill="#008000"/>
<ellipse transform="matrix(-.94921 -.31463 .39944 -.91676 0 0)" cx="-104.49" cy="-35.073" rx="1.5107" ry="1.2653" fill="#008000"/>
<ellipse transform="matrix(.33216 -.94322 .96654 .2565 0 0)" cx="-.60965" cy="113.45" rx="1.3833" ry="1.3805" fill="#008000"/>
<rect x="91.567" y="108.57" width="22.018" height="6.1281" fill="#ff0"/>
<rect x="89.441" y="105.83" width="26.546" height="2.856" fill="#ff0"/>
</g>
</svg>
