<?xml version="1.0" encoding="UTF-8"?>
<svg width="200mm" height="200mm" version="1.1" viewBox="0 0 200 200" xmlns="http://www.w3.org/2000/svg">
<ellipse transform="rotate(-37.977)" cx="-23.845" cy="102.03" rx="25.892" ry="26.303" fill="#b3b3b3" stroke-opacity="0"/>
<circle transform="rotate(-37.977)" cx="-7.4059" cy="62.163" r="3.6988" fill="#b3b3b3" stroke-opacity="0"/>
<ellipse transform="rotate(-37.977)" cx="36.158" cy="122.58" rx="36.577" ry="27.947" fill="#b3b3b3" stroke-opacity="0"/>
<ellipse transform="rotate(-37.977)" cx="28.349" cy="143.13" rx="19.727" ry="11.507" fill="#b3b3b3" stroke-opacity="0"/>
<ellipse transform="rotate(-37.977)" cx="-35.353" cy="126.28" rx="15.206" ry="12.74" fill="#b3b3b3" stroke-opacity="0"/>
<ellipse transform="rotate(-37.977)" cx="1.6356" cy="142.3" rx="33.289" ry="29.591" fill="#b3b3b3" stroke-opacity="0"/>
<ellipse transform="rotate(-37.977)" cx="30.815" cy="99.562" rx="42.742" ry="45.208" fill="#b3b3b3" stroke-opacity="0"/>
<ellipse transform="rotate(-37.977)" cx="66.981" cy="125.45" rx="34.522" ry="23.426" fill="#b3b3b3" stroke-opacity="0"/>
<ellipse transform="rotate(-37.977)" cx="46.021" cy="165.32" rx="45.619" ry="36.988" fill="#b3b3b3" stroke-opacity="0"/>
<path d="m36.988 140.56 129.87-1.6439v9.0416h-58.359v9.8635l36.988 0.82196 24.659 21.371-141.38-0.82196 21.371-21.371 41.92 0.82196v-9.8635h-54.249z" fill="#4d4d4d" stroke="#000" stroke-width=".26458px"/>
<rect x="51.82" y="162.26" width="92.093" height="13.179" fill="#fff" stroke-opacity="0"/>
<text transform="scale(.26458)" fill="#000000" font-family="sans-serif" font-size="26.667px" style="line-height:1.25;shape-inside:url(#rect23417);white-space:pre" xml:space="preserve"/>
<text transform="scale(.26458)" fill="#000000" font-family="sans-serif" font-size="29.333px" style="line-height:1.15;shape-inside:url(#rect28713);white-space:pre" xml:space="preserve"/>
<text transform="scale(.26458)" fill="#000000" font-family="sans-serif" font-size="40px" style="line-height:1.25;shape-inside:url(#rect31271);white-space:pre" xml:space="preserve"><tspan x="195.85547" y="649.76665">1.78.10¨-3 g.cm</tspan></text>
</svg>
