<?xml version="1.0" encoding="UTF-8" standalone="no"?>
<svg
   width="200mm"
   height="200mm"
   version="1.1"
   viewBox="0 0 200 200"
   id="svg40"
   sodipodi:docname="bild1.svg"
   inkscape:version="1.1.2 (b8e25be833, 2022-02-05)"
   xmlns:inkscape="http://www.inkscape.org/namespaces/inkscape"
   xmlns:sodipodi="http://sodipodi.sourceforge.net/DTD/sodipodi-0.dtd"
   xmlns="http://www.w3.org/2000/svg"
   xmlns:svg="http://www.w3.org/2000/svg">
  <defs
     id="defs44" />
  <sodipodi:namedview
     id="namedview42"
     pagecolor="#ffffff"
     bordercolor="#666666"
     borderopacity="1.0"
     inkscape:pageshadow="2"
     inkscape:pageopacity="0.0"
     inkscape:pagecheckerboard="0"
     inkscape:document-units="mm"
     showgrid="false"
     inkscape:zoom="0.67601042"
     inkscape:cx="502.2112"
     inkscape:cy="341.71071"
     inkscape:window-width="1366"
     inkscape:window-height="697"
     inkscape:window-x="-8"
     inkscape:window-y="-8"
     inkscape:window-maximized="1"
     inkscape:current-layer="svg40" />
  <ellipse
     cx="72.027817"
     cy="66.426361"
     rx="10.871422"
     ry="9.9564228"
     fill="#cccccc"
     stroke-opacity="0"
     id="ellipse2"
     style="stroke-width:0.775422" />
  <ellipse
     cx="120.05814"
     cy="66.632759"
     rx="10.871422"
     ry="9.9564228"
     fill="#cccccc"
     stroke-opacity="0"
     id="ellipse4"
     style="stroke-width:0.775422" />
  <ellipse
     cx="95.875336"
     cy="36.848999"
     rx="16.447784"
     ry="16.695768"
     fill="#cccccc"
     stroke-opacity="0"
     id="ellipse6"
     style="stroke-width:0.727231" />
  <rect
     x="74.571167"
     y="117.84"
     width="14.368"
     height="69.164001"
     fill="#cccccc"
     stroke-opacity="0"
     id="rect8" />
  <rect
     x="103.58083"
     y="118.08"
     width="14.368"
     height="69.164001"
     fill="#cccccc"
     stroke-opacity="0"
     id="rect10" />
  <rect
     x="74.347755"
     y="56.454338"
     width="43.775475"
     height="71.948608"
     fill="#cccccc"
     stroke-opacity="0"
     id="rect12"
     style="stroke-width:1.08261" />
  <rect
     x="112.67413"
     y="75.449036"
     width="11.628274"
     height="69.164001"
     fill="#cccccc"
     stroke-opacity="0"
     id="rect14"
     style="stroke-width:0.899621"
     transform="rotate(-5.213715)" />
  <rect
     x="66.111389"
     y="58.905098"
     width="11.236884"
     height="69.164001"
     fill="#cccccc"
     stroke-opacity="0"
     id="rect16"
     style="stroke-width:0.884351"
     transform="rotate(4.817761)" />
  <rect
     x="71.629112"
     y="64.120773"
     width="48.685665"
     height="37.238106"
     stroke-opacity="0"
     id="rect18"
     style="stroke-width:0.775422" />
  <rect
     x="72.499138"
     y="67.606293"
     width="46.198112"
     height="30.277916"
     fill="#00ff00"
     stroke-opacity="0"
     id="rect20"
     style="stroke-width:0.775422" />
  <rect
     x="94.092316"
     y="67.179039"
     width="2.4761562"
     height="30.701296"
     stroke-opacity="0"
     id="rect22"
     style="stroke-width:0.775422" />
  <path
     d="m 76.811259,69.016791 c 0,0 7.979096,12.432346 18.29454,3.48025 l 0.108249,3.82826 c 0,0 -11.808132,7.17762 -18.29454,-3.82826 z"
     stroke="#000000"
     stroke-width="0.124959px"
     id="path24" />
  <path
     d="m 76.762408,74.405976 c 0,0 7.979096,12.432346 18.294539,3.480251 l 0.108257,3.82826 c 0,0 -11.808132,7.177619 -18.294539,-3.82826 z"
     stroke="#000000"
     stroke-width="0.124959px"
     id="path26" />
  <path
     d="m 76.762408,79.79206 c 0,0 7.979096,12.432362 18.294539,3.48025 l 0.108257,3.82826 c 0,0 -11.808132,7.177633 -18.294539,-3.82826 z"
     stroke="#000000"
     stroke-width="0.124959px"
     id="path28" />
  <path
     d="m 76.762408,85.178919 c 0,0 7.979096,12.432356 18.294539,3.480173 l 0.108257,3.828198 c 0,0 -11.808132,7.177603 -18.294539,-3.828198 z"
     stroke="#000000"
     stroke-width="0.124959px"
     id="path30" />
  <path
     d="m 114.17667,69.019892 c 0,0 -8.2648,12.429245 -18.950886,3.479398 l -0.112138,3.82733 c 0,0 12.232264,7.175913 18.950884,-3.82733 z"
     stroke="#000000"
     stroke-width="0.127161px"
     id="path32" />
  <path
     d="m 114.22974,74.407527 c 0,0 -8.26479,12.429245 -18.950874,3.479397 l -0.112138,3.82733 c 0,0 12.232272,7.175836 18.950882,-3.82733 z"
     stroke="#000000"
     stroke-width="0.127161px"
     id="path34" />
  <path
     d="m 114.22974,79.792835 c 0,0 -8.26479,12.429261 -18.950874,3.479398 l -0.112138,3.827252 c 0,0 12.232272,7.175848 18.950882,-3.82733 z"
     stroke="#000000"
     stroke-width="0.127161px"
     id="path36" />
  <path
     d="m 114.22974,85.178143 c 0,0 -8.26479,12.429262 -18.950874,3.47932 l -0.112138,3.827269 c 0,0 12.232272,7.175901 18.950882,-3.827269 z"
     stroke="#000000"
     stroke-width="0.127161px"
     id="path38" />
</svg>
