<?xml version="1.0" encoding="UTF-8"?>
<svg width="200mm" height="200mm" version="1.1" viewBox="0 0 200 200" xmlns="http://www.w3.org/2000/svg">
<text transform="scale(.26458)" fill="#000000" font-family="sans-serif" font-size="26.667px" style="line-height:1.25;shape-inside:url(#rect23417);white-space:pre" xml:space="preserve"/>
<text transform="scale(.26458)" fill="#000000" font-family="sans-serif" font-size="29.333px" style="line-height:1.15;shape-inside:url(#rect28713);white-space:pre" xml:space="preserve"/>
<rect transform="rotate(49.81)" x="40.789" y="-34.455" width="200.99" height="40.104" fill="#d38d5f" stroke="#1f1f20" stroke-linecap="round" stroke-linejoin="round" stroke-width="2.2559"/>
<path d="m54.837 11.523-3.7845 3.197z" fill="#d38d5f" stroke="#1f1f20" stroke-width=".45432"/>
<path d="m56.405 13.379-3.7845 3.197z" fill="#d38d5f" stroke="#1f1f20" stroke-width=".45432"/>
<path d="m57.973 15.235-3.7845 3.197z" fill="#d38d5f" stroke="#1f1f20" stroke-width=".45432"/>
<path d="m59.542 17.092-3.7845 3.197z" fill="#d38d5f" stroke="#1f1f20" stroke-width=".45432"/>
<path d="m61.11 18.948-3.7845 3.197z" fill="#d38d5f" stroke="#1f1f20" stroke-width=".45432"/>
<path d="m62.678 20.804-3.7845 3.197z" fill="#d38d5f" stroke="#1f1f20" stroke-width=".45432"/>
<path d="m64.246 22.661-3.7845 3.197z" fill="#d38d5f" stroke="#1f1f20" stroke-width=".45432"/>
<path d="m65.814 24.517-3.7845 3.197z" fill="#d38d5f" stroke="#1f1f20" stroke-width=".45432"/>
<path d="m67.382 26.373-3.7845 3.197z" fill="#d38d5f" stroke="#1f1f20" stroke-width=".45432"/>
<path d="m68.95 28.23-5.4064 4.5671z" fill="#d38d5f" stroke="#1f1f20" stroke-width=".54302"/>
<path d="m70.518 30.086-3.9647 3.3492z" fill="#d38d5f" stroke="#1f1f20" stroke-width=".46501"/>
<path d="m72.087 31.942-3.9647 3.3492z" fill="#d38d5f" stroke="#1f1f20" stroke-width=".46501"/>
<path d="m73.655 33.798-3.9647 3.3492z" fill="#d38d5f" stroke="#1f1f20" stroke-width=".46501"/>
<path d="m75.223 35.655-3.9647 3.3492z" fill="#d38d5f" stroke="#1f1f20" stroke-width=".46501"/>
<path d="m76.791 37.511-3.9647 3.3492z" fill="#d38d5f" stroke="#1f1f20" stroke-width=".46501"/>
<path d="m78.359 39.367-3.9647 3.3492z" fill="#d38d5f" stroke="#1f1f20" stroke-width=".46501"/>
<path d="m79.927 41.224-3.9647 3.3492z" fill="#d38d5f" stroke="#1f1f20" stroke-width=".46501"/>
<path d="m81.495 43.08-3.9647 3.3492z" fill="#d38d5f" stroke="#1f1f20" stroke-width=".46501"/>
<path d="m83.064 44.936-3.9647 3.3492z" fill="#d38d5f" stroke="#1f1f20" stroke-width=".46501"/>
<path d="m84.632 46.793-5.4064 4.5671z" fill="#d38d5f" stroke="#1f1f20" stroke-width=".54302"/>
<path d="m86.2 48.649-3.7845 3.197z" fill="#d38d5f" stroke="#1f1f20" stroke-width=".45432"/>
<path d="m87.768 50.505-3.7845 3.197z" fill="#d38d5f" stroke="#1f1f20" stroke-width=".45432"/>
<path d="m89.336 52.361-3.7845 3.197z" fill="#d38d5f" stroke="#1f1f20" stroke-width=".45432"/>
<path d="m90.904 54.218-3.7845 3.197z" fill="#d38d5f" stroke="#1f1f20" stroke-width=".45432"/>
<path d="m92.472 56.074-3.7845 3.197z" fill="#d38d5f" stroke="#1f1f20" stroke-width=".45432"/>
<path d="m94.041 57.93-3.7844 3.197z" fill="#d38d5f" stroke="#1f1f20" stroke-width=".45432"/>
<path d="m95.609 59.787-3.7844 3.197z" fill="#d38d5f" stroke="#1f1f20" stroke-width=".45432"/>
<path d="m97.177 61.643-3.7844 3.197z" fill="#d38d5f" stroke="#1f1f20" stroke-width=".45432"/>
<path d="m98.745 63.499-3.7844 3.197z" fill="#d38d5f" stroke="#1f1f20" stroke-width=".45432"/>
<path d="m100.31 65.355-5.4063 4.5671z" fill="#d38d5f" stroke="#1f1f20" stroke-width=".54302"/>
<path d="m101.88 67.212-3.9647 3.3492z" fill="#d38d5f" stroke="#1f1f20" stroke-width=".46501"/>
<path d="m103.45 69.068-3.9647 3.3492z" fill="#d38d5f" stroke="#1f1f20" stroke-width=".46501"/>
<path d="m105.02 70.924-3.9647 3.3492z" fill="#d38d5f" stroke="#1f1f20" stroke-width=".46501"/>
<path d="m106.59 72.781-3.9647 3.3492z" fill="#d38d5f" stroke="#1f1f20" stroke-width=".46501"/>
<path d="m108.15 74.637-3.9647 3.3492z" fill="#d38d5f" stroke="#1f1f20" stroke-width=".46501"/>
<path d="m109.72 76.493-3.9647 3.3492z" fill="#d38d5f" stroke="#1f1f20" stroke-width=".46501"/>
<path d="m111.29 78.35-3.9647 3.3492z" fill="#d38d5f" stroke="#1f1f20" stroke-width=".46501"/>
<path d="m112.86 80.206-3.9647 3.3492z" fill="#d38d5f" stroke="#1f1f20" stroke-width=".46501"/>
<path d="m114.43 82.062-3.9647 3.3492z" fill="#d38d5f" stroke="#1f1f20" stroke-width=".46501"/>
<path d="m115.99 83.918-5.4064 4.5671z" fill="#d38d5f" stroke="#1f1f20" stroke-width=".54302"/>
<path d="m117.56 85.775-3.9647 3.3492z" fill="#d38d5f" stroke="#1f1f20" stroke-width=".46501"/>
<path d="m119.13 87.631-3.9647 3.3492z" fill="#d38d5f" stroke="#1f1f20" stroke-width=".46501"/>
<path d="m120.7 89.487-3.9647 3.3492z" fill="#d38d5f" stroke="#1f1f20" stroke-width=".46501"/>
<path d="m122.27 91.344-3.9647 3.3492z" fill="#d38d5f" stroke="#1f1f20" stroke-width=".46501"/>
<path d="m123.84 93.2-3.9647 3.3492z" fill="#d38d5f" stroke="#1f1f20" stroke-width=".46501"/>
<path d="m125.4 95.056-3.9647 3.3492z" fill="#d38d5f" stroke="#1f1f20" stroke-width=".46501"/>
<path d="m126.97 96.913-3.9647 3.3492z" fill="#d38d5f" stroke="#1f1f20" stroke-width=".46501"/>
<path d="m128.54 98.769-3.9647 3.3492z" fill="#d38d5f" stroke="#1f1f20" stroke-width=".46501"/>
<path d="m130.11 100.63-3.9647 3.3492z" fill="#d38d5f" stroke="#1f1f20" stroke-width=".46501"/>
<path d="m131.68 102.48-5.4064 4.5671z" fill="#d38d5f" stroke="#1f1f20" stroke-width=".54302"/>
<path d="m133.24 104.34-4.1449 3.5015z" fill="#d38d5f" stroke="#1f1f20" stroke-width=".47546"/>
<path d="m134.81 106.19-4.1449 3.5015z" fill="#d38d5f" stroke="#1f1f20" stroke-width=".47546"/>
<path d="m136.38 108.05-4.1449 3.5015z" fill="#d38d5f" stroke="#1f1f20" stroke-width=".47546"/>
<path d="m137.95 109.91-4.1449 3.5015z" fill="#d38d5f" stroke="#1f1f20" stroke-width=".47546"/>
<path d="m139.52 111.76-4.1449 3.5015z" fill="#d38d5f" stroke="#1f1f20" stroke-width=".47546"/>
<path d="m141.08 113.62-4.1449 3.5015z" fill="#d38d5f" stroke="#1f1f20" stroke-width=".47546"/>
<path d="m142.65 115.48-4.1449 3.5014z" fill="#d38d5f" stroke="#1f1f20" stroke-width=".47546"/>
<path d="m144.22 117.33-4.1449 3.5015z" fill="#d38d5f" stroke="#1f1f20" stroke-width=".47546"/>
<path d="m145.79 119.19-4.1449 3.5014z" fill="#d38d5f" stroke="#1f1f20" stroke-width=".47546"/>
<path d="m147.36 121.04-5.4064 4.5671z" fill="#d38d5f" stroke="#1f1f20" stroke-width=".54302"/>
<path d="m148.93 122.9-4.1449 3.5015z" fill="#d38d5f" stroke="#1f1f20" stroke-width=".47546"/>
<path d="m150.49 124.76-4.1449 3.5015z" fill="#d38d5f" stroke="#1f1f20" stroke-width=".47546"/>
<path d="m152.06 126.61-4.1449 3.5015z" fill="#d38d5f" stroke="#1f1f20" stroke-width=".47546"/>
<path d="m153.63 128.47-4.1449 3.5015z" fill="#d38d5f" stroke="#1f1f20" stroke-width=".47546"/>
<path d="m155.2 130.33-4.1449 3.5014z" fill="#d38d5f" stroke="#1f1f20" stroke-width=".47546"/>
<path d="m156.77 132.18-4.1449 3.5015z" fill="#d38d5f" stroke="#1f1f20" stroke-width=".47546"/>
<path d="m158.33 134.04-4.1449 3.5015z" fill="#d38d5f" stroke="#1f1f20" stroke-width=".47546"/>
<path d="m159.9 135.89-4.1449 3.5014z" fill="#d38d5f" stroke="#1f1f20" stroke-width=".47546"/>
<path d="m161.47 137.75-4.1449 3.5015z" fill="#d38d5f" stroke="#1f1f20" stroke-width=".47546"/>
<path d="m163.04 139.61-5.4064 4.5671z" fill="#d38d5f" stroke="#1f1f20" stroke-width=".54302"/>
<path d="m164.61 141.46-3.9647 3.3492z" fill="#d38d5f" stroke="#1f1f20" stroke-width=".46501"/>
<path d="m166.17 143.32-3.9647 3.3492z" fill="#d38d5f" stroke="#1f1f20" stroke-width=".46501"/>
<path d="m167.74 145.18-3.9647 3.3492z" fill="#d38d5f" stroke="#1f1f20" stroke-width=".46501"/>
<path d="m169.31 147.03-3.9647 3.3492z" fill="#d38d5f" stroke="#1f1f20" stroke-width=".46501"/>
<path d="m170.88 148.89-3.9647 3.3492z" fill="#d38d5f" stroke="#1f1f20" stroke-width=".46501"/>
<path d="m172.45 150.75-3.9647 3.3492z" fill="#d38d5f" stroke="#1f1f20" stroke-width=".46501"/>
<path d="m174.02 152.6-3.9647 3.3492z" fill="#d38d5f" stroke="#1f1f20" stroke-width=".46501"/>
<path d="m175.58 154.46-3.9647 3.3492z" fill="#d38d5f" stroke="#1f1f20" stroke-width=".46501"/>
<path d="m177.15 156.31-3.9647 3.3492z" fill="#d38d5f" stroke="#1f1f20" stroke-width=".46501"/>
<path d="m178.72 158.17-5.4064 4.5671z" fill="#d38d5f" stroke="#1f1f20" stroke-width=".54302"/>
</svg>
