<?xml version="1.0" encoding="UTF-8"?>
<svg width="200mm" height="200mm" version="1.1" viewBox="0 0 200 200" xmlns="http://www.w3.org/2000/svg">
<text transform="scale(.26458)" fill="#000000" font-family="sans-serif" font-size="26.667px" style="line-height:1.25;shape-inside:url(#rect23417);white-space:pre" xml:space="preserve"/>
<text transform="scale(.26458)" fill="#000000" font-family="sans-serif" font-size="29.333px" style="line-height:1.15;shape-inside:url(#rect28713);white-space:pre" xml:space="preserve"/>
<rect x="35.836" y="52.176" width="129.14" height="98.779" stroke-opacity="0"/>
<path d="m111.06 107.41v28.769z" fill="#008000" stroke="#29b900" stroke-width="1.0966"/>
<rect x="38.143" y="61.421" width="122.55" height="80.315" fill="#0f0" stroke-opacity="0"/>
<path d="m75.762 83.978-12.276 16.466 13.173 16.878 12.049-16.915z" fill="#0ff" stroke="#000" stroke-width=".1874px"/>
<path d="m88.708 100.41-8.3437 0.44852-8.6448-0.0447-8.2331-0.36696 13.173 16.878z" fill="#009696" stroke="#000" stroke-width=".1874px"/>
<path d="m75.762 83.978 4.602 16.878-3.7049 16.466-4.9399-16.54z" fill="#fff" stroke="#000" stroke-width=".1874px"/>
<path d="m71.719 100.78 8.6448 0.0737-3.7049 16.466-4.9399-16.54 8.6448 0.0737-3.7049 16.466" fill="#04ffff" stroke="#000" stroke-width=".1874px"/>
<path d="m88.038 67.511-12.276 16.466 13.173 16.878 12.049-16.915z" fill="#0ff" stroke="#000" stroke-width=".1874px"/>
<path d="m100.98 83.941-8.3437 0.44852-8.6448-0.0447-8.2331-0.36696 13.173 16.878z" fill="#009696" stroke="#000" stroke-width=".1874px"/>
<path d="m88.038 67.511 4.602 16.878-3.7049 16.466-4.9399-16.54z" fill="#fff" stroke="#000" stroke-width=".1874px"/>
<path d="m83.995 84.316 8.6448 0.0737-3.7049 16.466-4.9399-16.54 8.6448 0.0737-3.7049 16.466" fill="#04ffff" stroke="#000" stroke-width=".1874px"/>
<path d="m88.935 100.86-12.276 16.466 13.173 16.878 12.049-16.915z" fill="#0ff" stroke="#000" stroke-width=".1874px"/>
<path d="m101.88 117.29-8.3437 0.44852-8.6448-0.0447-8.2331-0.36696 13.173 16.878z" fill="#009696" stroke="#000" stroke-width=".1874px"/>
<path d="m88.935 100.86 4.602 16.878-3.7049 16.466-4.9399-16.54z" fill="#fff" stroke="#000" stroke-width=".1874px"/>
<path d="m84.892 117.66 8.6448 0.0737-3.7049 16.466-4.9399-16.54 8.6448 0.0737-3.7049 16.466" fill="#04ffff" stroke="#000" stroke-width=".1874px"/>
<path d="m100.98 83.941-12.276 16.466 13.173 16.878 12.049-16.915z" fill="#0ff" stroke="#000" stroke-width=".1874px"/>
<path d="m113.93 100.37-8.3438 0.44852-8.6448-0.0447-8.2331-0.36696 13.173 16.878z" fill="#009696" stroke="#000" stroke-width=".1874px"/>
<path d="m100.98 83.941 4.602 16.878-3.7049 16.466-4.9399-16.54z" fill="#fff" stroke="#000" stroke-width=".1874px"/>
<path d="m96.941 100.75 8.6448 0.0737-3.7049 16.466-4.9399-16.54 8.6448 0.0737-3.7049 16.466" fill="#04ffff" stroke="#000" stroke-width=".1874px"/>
<path d="m113.26 67.475-12.276 16.466 13.173 16.878 12.049-16.915z" fill="#0ff" stroke="#000" stroke-width=".1874px"/>
<path d="m126.21 83.904-8.3437 0.44852-8.6448-0.0447-8.2332-0.36696 13.173 16.878z" fill="#009696" stroke="#000" stroke-width=".1874px"/>
<path d="m113.26 67.475 4.602 16.878-3.7049 16.466-4.9399-16.54z" fill="#fff" stroke="#000" stroke-width=".1874px"/>
<path d="m109.22 84.279 8.6448 0.0737-3.7049 16.466-4.9399-16.54 8.6448 0.0737-3.7049 16.466" fill="#04ffff" stroke="#000" stroke-width=".1874px"/>
<path d="m114.16 100.82-12.276 16.466 13.173 16.878 12.049-16.915z" fill="#0ff" stroke="#000" stroke-width=".1874px"/>
<path d="m127.1 117.25-8.3437 0.44852-8.6448-0.0447-8.2332-0.36696 13.173 16.878z" fill="#009696" stroke="#000" stroke-width=".1874px"/>
<path d="m114.16 100.82 4.602 16.878-3.7049 16.466-4.9399-16.54z" fill="#fff" stroke="#000" stroke-width=".1874px"/>
<path d="m110.11 117.62 8.6448 0.0737-3.7049 16.466-4.9399-16.54 8.6448 0.0737-3.7049 16.466" fill="#04ffff" stroke="#000" stroke-width=".1874px"/>
<path d="m126.21 83.904-12.276 16.466 13.173 16.878 12.049-16.915z" fill="#0ff" stroke="#000" stroke-width=".1874px"/>
<path d="m139.15 100.33-8.3437 0.44852-8.6448-0.0447-8.2331-0.36697 13.173 16.878z" fill="#009696" stroke="#000" stroke-width=".1874px"/>
<path d="m126.21 83.904 4.602 16.878-3.7049 16.466-4.9399-16.54z" fill="#fff" stroke="#000" stroke-width=".1874px"/>
<path d="m122.16 100.71 8.6448 0.0737-3.7049 16.466-4.9399-16.54 8.6448 0.0737-3.7049 16.466" fill="#04ffff" stroke="#000" stroke-width=".1874px"/>
</svg>
