<?xml version="1.0" encoding="UTF-8" standalone="no"?>
<svg
   width="200mm"
   height="200mm"
   version="1.1"
   viewBox="0 0 200 200"
   id="svg244"
   sodipodi:docname="bild17.svg"
   inkscape:version="1.1.2 (b8e25be833, 2022-02-05)"
   xmlns:inkscape="http://www.inkscape.org/namespaces/inkscape"
   xmlns:sodipodi="http://sodipodi.sourceforge.net/DTD/sodipodi-0.dtd"
   xmlns="http://www.w3.org/2000/svg"
   xmlns:svg="http://www.w3.org/2000/svg">
  <defs
     id="defs248" />
  <sodipodi:namedview
     id="namedview246"
     pagecolor="#ffffff"
     bordercolor="#666666"
     borderopacity="1.0"
     inkscape:pageshadow="2"
     inkscape:pageopacity="0.0"
     inkscape:pagecheckerboard="0"
     inkscape:document-units="mm"
     showgrid="false"
     inkscape:zoom="0.67601042"
     inkscape:cx="377.21312"
     inkscape:cy="377.95276"
     inkscape:window-width="1271"
     inkscape:window-height="720"
     inkscape:window-x="78"
     inkscape:window-y="0"
     inkscape:window-maximized="0"
     inkscape:current-layer="svg244" />
  <text
     transform="scale(.26458)"
     fill="#000000"
     font-family="sans-serif"
     font-size="26.667px"
     style="line-height:1.25;shape-inside:url(#rect23417);white-space:pre"
     xml:space="preserve"
     id="text2" />
  <text
     transform="scale(.26458)"
     fill="#000000"
     font-family="sans-serif"
     font-size="29.333px"
     style="line-height:1.15;shape-inside:url(#rect28713);white-space:pre"
     xml:space="preserve"
     id="text4" />
  <rect
     x="7.7859"
     y="32.149"
     width="185.67"
     height="142.02"
     stroke-opacity="0"
     id="rect6" />
  <rect
     x="12.161332"
     y="45.441002"
     width="176.19"
     height="115.47"
     fill="#00ff00"
     stroke-opacity="0"
     id="rect8" />
  <rect
     x="22.033335"
     y="63.515999"
     width="7.1789999"
     height="7.1789999"
     fill="#008000"
     id="rect10" />
  <rect
     x="22.033335"
     y="72.116997"
     width="7.1789999"
     height="7.1789999"
     fill="#ff2a2a"
     id="rect12" />
  <rect
     x="22.033335"
     y="80.718002"
     width="7.1789999"
     height="7.1789999"
     fill="#ff2a2a"
     id="rect14" />
  <rect
     x="22.033335"
     y="89.319"
     width="7.1789999"
     height="7.1789999"
     fill="#ff2a2a"
     id="rect16" />
  <rect
     x="22.033335"
     y="97.919998"
     width="7.1789999"
     height="7.1789999"
     fill="#ff2a2a"
     id="rect18" />
  <rect
     x="22.033335"
     y="106.52"
     width="7.1789999"
     height="7.1789999"
     fill="#ff2a2a"
     id="rect20" />
  <rect
     x="22.033335"
     y="115.12"
     width="7.1789999"
     height="7.1789999"
     fill="#ff2a2a"
     id="rect22" />
  <rect
     x="30.634335"
     y="72.116997"
     width="7.1789999"
     height="7.1789999"
     fill="#ff9955"
     id="rect24" />
  <rect
     x="30.634335"
     y="80.718002"
     width="7.1789999"
     height="7.1789999"
     fill="#ff9955"
     id="rect26" />
  <rect
     x="30.634335"
     y="89.319"
     width="7.1789999"
     height="7.1789999"
     fill="#ff9955"
     id="rect28" />
  <rect
     x="30.634335"
     y="97.919998"
     width="7.1789999"
     height="7.1789999"
     fill="#ff9955"
     id="rect30" />
  <rect
     x="30.634335"
     y="106.52"
     width="7.1789999"
     height="7.1789999"
     fill="#ff9955"
     id="rect32" />
  <rect
     x="30.634335"
     y="115.12"
     width="7.1789999"
     height="7.1789999"
     fill="#ff9955"
     id="rect34" />
  <rect
     x="40.657333"
     y="89.319"
     width="7.1789999"
     height="7.1789999"
     fill="#ff5555"
     id="rect36" />
  <rect
     x="40.657333"
     y="97.919998"
     width="7.1789999"
     height="7.1789999"
     fill="#ff5555"
     id="rect38" />
  <rect
     x="40.657333"
     y="106.52"
     width="7.1789999"
     height="7.1789999"
     fill="#ff00ff"
     id="rect40" />
  <rect
     x="40.657333"
     y="115.12"
     width="7.1789999"
     height="7.1789999"
     fill="#800080"
     id="rect42" />
  <rect
     x="49.258335"
     y="89.319"
     width="7.1789999"
     height="7.1789999"
     fill="#ff5555"
     id="rect44" />
  <rect
     x="49.258335"
     y="97.919998"
     width="7.1789999"
     height="7.1789999"
     fill="#ff5555"
     id="rect46" />
  <rect
     x="49.258335"
     y="106.52"
     width="7.1789999"
     height="7.1789999"
     fill="#ff5555"
     id="rect48" />
  <rect
     x="49.258335"
     y="115.12"
     width="7.1789999"
     height="7.1789999"
     fill="#ff5555"
     id="rect50" />
  <rect
     x="66.460335"
     y="89.319"
     width="7.1789999"
     height="7.1789999"
     fill="#ff5555"
     id="rect52" />
  <rect
     x="66.460335"
     y="97.919998"
     width="7.1789999"
     height="7.1789999"
     fill="#ff5555"
     id="rect54" />
  <rect
     x="66.460335"
     y="106.52"
     width="7.1789999"
     height="7.1789999"
     fill="#ff5555"
     id="rect56" />
  <rect
     x="66.460335"
     y="115.12"
     width="7.1789999"
     height="7.1789999"
     fill="#ff5555"
     id="rect58" />
  <rect
     x="57.859333"
     y="89.319"
     width="7.1789999"
     height="7.1789999"
     fill="#ff5555"
     id="rect60" />
  <rect
     x="57.859333"
     y="97.919998"
     width="7.1789999"
     height="7.1789999"
     fill="#ff5555"
     id="rect62" />
  <rect
     x="57.859333"
     y="106.52"
     width="7.1789999"
     height="7.1789999"
     fill="#ff5555"
     id="rect64" />
  <rect
     x="57.859333"
     y="115.12"
     width="7.1789999"
     height="7.1789999"
     fill="#ff5555"
     id="rect66" />
  <rect
     x="75.061333"
     y="89.319"
     width="7.1789999"
     height="7.1789999"
     fill="#ff5555"
     id="rect68" />
  <rect
     x="75.061333"
     y="97.919998"
     width="7.1789999"
     height="7.1789999"
     fill="#ff5555"
     id="rect70" />
  <rect
     x="75.061333"
     y="106.52"
     width="7.1789999"
     height="7.1789999"
     fill="#ff5555"
     id="rect72" />
  <rect
     x="75.061333"
     y="115.12"
     width="7.1789999"
     height="7.1789999"
     fill="#ff5555"
     id="rect74" />
  <rect
     x="92.264336"
     y="89.319"
     width="7.1789999"
     height="7.1789999"
     fill="#ff5555"
     id="rect76" />
  <rect
     x="92.264336"
     y="97.919998"
     width="7.1789999"
     height="7.1789999"
     fill="#ff5555"
     id="rect78" />
  <rect
     x="92.264336"
     y="106.52"
     width="7.1789999"
     height="7.1789999"
     fill="#ff5555"
     id="rect80" />
  <rect
     x="92.264336"
     y="115.12"
     width="7.1789999"
     height="7.1789999"
     fill="#ff5555"
     id="rect82" />
  <rect
     x="100.86533"
     y="89.319"
     width="7.1789999"
     height="7.1789999"
     fill="#ff5555"
     id="rect84" />
  <rect
     x="100.86533"
     y="97.919998"
     width="7.1789999"
     height="7.1789999"
     fill="#ff5555"
     id="rect86" />
  <rect
     x="100.86533"
     y="106.52"
     width="7.1789999"
     height="7.1789999"
     fill="#ff5555"
     id="rect88" />
  <rect
     x="100.86533"
     y="115.12"
     width="7.1789999"
     height="7.1789999"
     fill="#ff5555"
     id="rect90" />
  <rect
     x="109.46834"
     y="89.319"
     width="7.1789999"
     height="7.1789999"
     fill="#ff5555"
     id="rect92" />
  <rect
     x="109.46834"
     y="97.919998"
     width="7.1789999"
     height="7.1789999"
     fill="#ff5555"
     id="rect94" />
  <rect
     x="109.46834"
     y="106.52"
     width="7.1789999"
     height="7.1789999"
     fill="#ff5555"
     id="rect96" />
  <rect
     x="109.46834"
     y="115.12"
     width="7.1789999"
     height="7.1789999"
     fill="#ff5555"
     id="rect98" />
  <rect
     x="118.06834"
     y="89.319"
     width="7.1789999"
     height="7.1789999"
     fill="#ff5555"
     id="rect100" />
  <rect
     x="118.06834"
     y="97.919998"
     width="7.1789999"
     height="7.1789999"
     fill="#ff5555"
     id="rect102" />
  <rect
     x="118.06834"
     y="106.52"
     width="7.1789999"
     height="7.1789999"
     fill="#ff5555"
     id="rect104" />
  <rect
     x="118.06834"
     y="115.12"
     width="7.1789999"
     height="7.1789999"
     fill="#ff5555"
     id="rect106" />
  <rect
     x="83.662331"
     y="89.319"
     width="7.1789999"
     height="7.1789999"
     fill="#ff5555"
     id="rect108" />
  <rect
     x="83.662331"
     y="97.919998"
     width="7.1789999"
     height="7.1789999"
     fill="#ff5555"
     id="rect110" />
  <rect
     x="83.662331"
     y="106.52"
     width="7.1789999"
     height="7.1789999"
     fill="#ff5555"
     id="rect112" />
  <rect
     x="83.662331"
     y="115.12"
     width="7.1789999"
     height="7.1789999"
     fill="#ff5555"
     id="rect114" />
  <rect
     x="40.657333"
     y="125.15"
     width="7.1789999"
     height="7.1789999"
     fill="#ff00ff"
     id="rect116" />
  <rect
     x="40.657333"
     y="133.75"
     width="7.1789999"
     height="7.1789999"
     fill="#800080"
     id="rect118" />
  <rect
     x="49.258335"
     y="125.15"
     width="7.1789999"
     height="7.1789999"
     fill="#ff00ff"
     id="rect120" />
  <rect
     x="49.258335"
     y="133.75"
     width="7.1789999"
     height="7.1789999"
     fill="#800080"
     id="rect122" />
  <rect
     x="66.460335"
     y="125.15"
     width="7.1789999"
     height="7.1789999"
     fill="#ff00ff"
     id="rect124" />
  <rect
     x="66.460335"
     y="133.75"
     width="7.1789999"
     height="7.1789999"
     fill="#800080"
     id="rect126" />
  <rect
     x="57.859333"
     y="125.15"
     width="7.1789999"
     height="7.1789999"
     fill="#ff00ff"
     id="rect128" />
  <rect
     x="57.859333"
     y="133.75"
     width="7.1789999"
     height="7.1789999"
     fill="#800080"
     id="rect130" />
  <rect
     x="75.061333"
     y="125.15"
     width="7.1789999"
     height="7.1789999"
     fill="#ff00ff"
     id="rect132" />
  <rect
     x="75.061333"
     y="133.75"
     width="7.1789999"
     height="7.1789999"
     fill="#800080"
     id="rect134" />
  <rect
     x="92.264336"
     y="125.15"
     width="7.1789999"
     height="7.1789999"
     fill="#ff00ff"
     id="rect136" />
  <rect
     x="92.264336"
     y="133.75"
     width="7.1789999"
     height="7.1789999"
     fill="#800080"
     id="rect138" />
  <rect
     x="100.86533"
     y="125.15"
     width="7.1789999"
     height="7.1789999"
     fill="#ff00ff"
     id="rect140" />
  <rect
     x="100.86533"
     y="133.75"
     width="7.1789999"
     height="7.1789999"
     fill="#800080"
     id="rect142" />
  <rect
     x="109.46834"
     y="125.15"
     width="7.1789999"
     height="7.1789999"
     fill="#ff00ff"
     id="rect144" />
  <rect
     x="109.46834"
     y="133.75"
     width="7.1789999"
     height="7.1789999"
     fill="#800080"
     id="rect146" />
  <rect
     x="118.06834"
     y="125.15"
     width="7.1789999"
     height="7.1789999"
     fill="#ff00ff"
     id="rect148" />
  <rect
     x="118.06834"
     y="133.75"
     width="7.1789999"
     height="7.1789999"
     fill="#800080"
     id="rect150" />
  <rect
     x="83.662331"
     y="125.15"
     width="7.1789999"
     height="7.1789999"
     fill="#ff00ff"
     id="rect152" />
  <rect
     x="83.662331"
     y="133.75"
     width="7.1789999"
     height="7.1789999"
     fill="#800080"
     id="rect154" />
  <rect
     x="126.66833"
     y="89.319"
     width="7.1789999"
     height="7.1789999"
     fill="#008080"
     id="rect156" />
  <rect
     x="126.66833"
     y="97.919998"
     width="7.1789999"
     height="7.1789999"
     fill="#008080"
     id="rect158" />
  <rect
     x="126.66833"
     y="106.52"
     width="7.1789999"
     height="7.1789999"
     fill="#008080"
     id="rect160" />
  <rect
     x="126.66833"
     y="115.12"
     width="7.1789999"
     height="7.1789999"
     fill="#008080"
     id="rect162" />
  <rect
     x="143.86832"
     y="89.319"
     width="7.1789999"
     height="7.1789999"
     fill="#808000"
     id="rect164" />
  <rect
     x="143.86832"
     y="97.919998"
     width="7.1789999"
     height="7.1789999"
     fill="#808000"
     id="rect166" />
  <rect
     x="143.86832"
     y="106.52"
     width="7.1789999"
     height="7.1789999"
     fill="#008080"
     id="rect168" />
  <rect
     x="143.86832"
     y="115.12"
     width="7.1789999"
     height="7.1789999"
     fill="#008080"
     id="rect170" />
  <rect
     x="152.46832"
     y="89.319"
     width="7.1789999"
     height="7.1789999"
     fill="#008000"
     id="rect172" />
  <rect
     x="152.46832"
     y="97.919998"
     width="7.1789999"
     height="7.1789999"
     fill="#808000"
     id="rect174" />
  <rect
     x="152.46832"
     y="106.52"
     width="7.1789999"
     height="7.1789999"
     fill="#008080"
     id="rect176" />
  <rect
     x="152.46832"
     y="115.12"
     width="7.1789999"
     height="7.1789999"
     fill="#008080"
     id="rect178" />
  <rect
     x="161.06831"
     y="89.319"
     width="7.1789999"
     height="7.1789999"
     fill="#ffff00"
     id="rect180" />
  <rect
     x="161.06831"
     y="97.919998"
     width="7.1789999"
     height="7.1789999"
     fill="#ffff00"
     id="rect182" />
  <rect
     x="161.06831"
     y="106.52"
     width="7.1789999"
     height="7.1789999"
     fill="#ffff00"
     id="rect184" />
  <rect
     x="161.06831"
     y="115.12"
     width="7.1789999"
     height="7.1789999"
     fill="#ffff00"
     id="rect186" />
  <rect
     x="169.66832"
     y="89.319"
     width="7.1789999"
     height="7.1789999"
     fill="#00ffff"
     id="rect188" />
  <rect
     x="169.66832"
     y="97.919998"
     width="7.1789999"
     height="7.1789999"
     fill="#00ffff"
     id="rect190" />
  <rect
     x="169.66832"
     y="106.52"
     width="7.1789999"
     height="7.1789999"
     fill="#00ffff"
     id="rect192" />
  <rect
     x="169.66832"
     y="115.12"
     width="7.1789999"
     height="7.1789999"
     fill="#00ffff"
     id="rect194" />
  <rect
     x="135.26833"
     y="89.319"
     width="7.1789999"
     height="7.1789999"
     fill="#808000"
     id="rect196" />
  <rect
     x="135.26833"
     y="97.919998"
     width="7.1789999"
     height="7.1789999"
     fill="#008080"
     id="rect198" />
  <rect
     x="126.66833"
     y="72.116997"
     width="7.1789999"
     height="7.1789999"
     fill="#808000"
     id="rect200" />
  <rect
     x="126.66833"
     y="80.718002"
     width="7.1789999"
     height="7.1789999"
     fill="#008080"
     id="rect202" />
  <rect
     x="143.86832"
     y="72.116997"
     width="7.1789999"
     height="7.1789999"
     fill="#008000"
     id="rect204" />
  <rect
     x="143.86832"
     y="80.718002"
     width="7.1789999"
     height="7.1789999"
     fill="#008000"
     id="rect206" />
  <rect
     x="152.46832"
     y="72.116997"
     width="7.1789999"
     height="7.1789999"
     fill="#008000"
     id="rect208" />
  <rect
     x="152.46832"
     y="80.718002"
     width="7.1789999"
     height="7.1789999"
     fill="#008000"
     id="rect210" />
  <rect
     x="161.06831"
     y="72.116997"
     width="7.1789999"
     height="7.1789999"
     fill="#ffff00"
     id="rect212" />
  <rect
     x="161.06831"
     y="80.718002"
     width="7.1789999"
     height="7.1789999"
     fill="#ffff00"
     id="rect214" />
  <rect
     x="169.66832"
     y="72.116997"
     width="7.1789999"
     height="7.1789999"
     fill="#00ffff"
     id="rect216" />
  <rect
     x="169.66832"
     y="80.718002"
     width="7.1789999"
     height="7.1789999"
     fill="#00ffff"
     id="rect218" />
  <rect
     x="135.26833"
     y="72.116997"
     width="7.1789999"
     height="7.1789999"
     fill="#008000"
     id="rect220" />
  <rect
     x="135.26833"
     y="80.718002"
     width="7.1789999"
     height="7.1789999"
     fill="#808000"
     id="rect222" />
  <rect
     x="135.26833"
     y="106.52"
     width="7.1789999"
     height="7.1789999"
     fill="#008080"
     id="rect224" />
  <rect
     x="135.26833"
     y="115.12"
     width="7.1789999"
     height="7.1789999"
     fill="#008080"
     id="rect226" />
  <rect
     x="126.66833"
     y="125.15"
     width="7.1789999"
     height="7.1789999"
     fill="#ff00ff"
     id="rect228" />
  <rect
     x="126.66833"
     y="133.75"
     width="7.1789999"
     height="7.1789999"
     fill="#800080"
     id="rect230" />
  <rect
     x="143.86832"
     y="125.15"
     width="7.1789999"
     height="7.1789999"
     fill="#ff00ff"
     id="rect232" />
  <rect
     x="143.86832"
     y="133.75"
     width="7.1789999"
     height="7.1789999"
     fill="#800080"
     id="rect234" />
  <rect
     x="152.46832"
     y="125.15"
     width="7.1789999"
     height="7.1789999"
     fill="#ff00ff"
     id="rect236" />
  <rect
     x="152.46832"
     y="133.75"
     width="7.1789999"
     height="7.1789999"
     fill="#800080"
     id="rect238" />
  <rect
     x="135.26833"
     y="125.15"
     width="7.1789999"
     height="7.1789999"
     fill="#ff00ff"
     id="rect240" />
  <rect
     x="135.26833"
     y="133.75"
     width="7.1789999"
     height="7.1789999"
     fill="#800080"
     id="rect242" />
</svg>
